<svg xmlns="http://www.w3.org/2000/svg" width="123" height="123" viewBox="0 0 123 123">
  <g id="Group_184" data-name="Group 184" transform="translate(-3.668 -397.564)">
    <rect id="Rectangle_41" data-name="Rectangle 41" width="123" height="123" rx="16" transform="translate(3.668 397.564)" fill="#477dee"/>
    <path id="Path_1723" data-name="Path 1723" d="M358.892,184.573c-.631.041-4.712.29-5.257-.307-2.171-2.378-4.408-10.879-5.657-13.506-.694-1.46-4.185-13.432-6.652-18.627l.042-3.262s1.035.417,1.268.566a27.374,27.374,0,0,1,5.036,3.755,16.131,16.131,0,0,1,1.142,1.7c.541.891,2.061.861,3.105.2a1.886,1.886,0,0,0-.43-2.865,19.885,19.885,0,0,1-2.507-1.406c-.521-.432-4.932-4.394-5.491-5-.366-.4-1.977-1.909-1.977-1.909a90.6,90.6,0,0,0-1.314-10.309,16.01,16.01,0,0,1-.712-3.11c.011-.549-.123-3.113,1.118-2.887,2.006.365,3.139-3.725,2.886-6.157a4.048,4.048,0,0,0-4.381-3.9,4.2,4.2,0,0,0-3.626,2.948c-.516,2.331-.015,3.193,0,4.379,0,.332.04,1,0,1.329a8.258,8.258,0,0,1-.791,2.88,19.02,19.02,0,0,0-3.8,4.173c-1.168,1.923-2.224,6.438-3.014,9.083-1.231,4.121-1.874,10.458-2.825,12.031a5.79,5.79,0,0,0-.926,3.478c.2,2.343,2.791,1.723,3.31.714A9.057,9.057,0,0,0,328,155.25c.182-1.963,3.419-10.8,3.419-10.8s-.212,5.876-.292,6.848a42.274,42.274,0,0,0-1.118,4.976c-.218,1.317-.239,2.486-.426,4.631a79.757,79.757,0,0,1-1.4,9.437c-2.6,2.729-4.039,7.722-6.579,11.029-.438.569-2.682,2.139-1.127,4a31.948,31.948,0,0,0,2.985,2.807,6.533,6.533,0,0,0,2.5,1.626c.644.087,1.832.076,1.943-.611.059-.367-1.287-1-1.436-1.181a7.253,7.253,0,0,1-1.355-3.291,1.735,1.735,0,0,1,.265-.966c.478-.972,5.736-8.2,7.241-10.826,1.566-2.731,3.423-9.072,4.519-11.765.87,2.679,5.35,10.48,7.389,14.282.916,2.862,2.412,5.441,5.1,10.309.473.857.572,2.845,1.271,3.2.45.226,1.083.107,2.273-.487,3.44-1.717,7.76-1.959,7.76-2.788C360.931,184.944,359.491,184.535,358.892,184.573Z" transform="translate(-275.268 305.011)" fill="#fff"/>
  </g>
</svg>
