<svg xmlns="http://www.w3.org/2000/svg" width="123" height="123" viewBox="0 0 123 123">
  <g id="Group_185" data-name="Group 185" transform="translate(-221.668 -404.564)">
    <rect id="Rectangle_41" data-name="Rectangle 41" width="123" height="123" rx="16" transform="translate(221.668 404.564)" fill="#18b5b5"/>
    <g id="Group_168" data-name="Group 168" transform="translate(245.559 426.192)">
      <path id="Path_1724" data-name="Path 1724" d="M1600.048,552.694a38.368,38.368,0,0,0,17.675-9.166,44.756,44.756,0,0,0,5.712-6.055.552.552,0,0,0,.1-.7,3.7,3.7,0,0,1,1.27-4.869c.234-.125.222-.259.133-.457-.717-1.6-1.5-3.164-2.3-4.718-.134-.259-.36-.31-.594-.388a128.429,128.429,0,0,0-14.239-3.867c-.186-.04-.371-.085-.556-.128,0-.216.128-.143.24-.108,1.719.215,3.405.61,5.094.979,3.011.658,5.985,1.461,8.931,2.363.138.042.272.155.464.047a3.627,3.627,0,0,0-.514-.985,70.319,70.319,0,0,0-10.561-13.876,2.26,2.26,0,0,0-2.317-.784,31.363,31.363,0,0,0-10.165,3.621,22.971,22.971,0,0,0-11.043,15.687c-1.8,8.82.487,16.692,6.179,23.611.53.643,1.1,1.251,1.664,1.885-.219.116-.359-.03-.5-.1a34.42,34.42,0,0,1-9.346-6.485,19.386,19.386,0,0,1-4.781-7.167,14.764,14.764,0,0,1,.279-11.021,34.378,34.378,0,0,1,6.947-10.853,32.44,32.44,0,0,1,18.688-9.895,33.516,33.516,0,0,1,26.2,6.417c.168.125.322.269.482.4.014.094,0,.154-.117.108a46.366,46.366,0,0,0-5.772-3.458,29.676,29.676,0,0,0-8.909-2.906,29.052,29.052,0,0,0-7.414-.146c.66.694,1.261,1.318,1.854,1.949a67.987,67.987,0,0,1,9.964,13.738,2.033,2.033,0,0,0,1.246,1.035c1.641.545,3.259,1.16,4.874,1.779.349.134.484.071.645-.252a35.855,35.855,0,0,0,2.837-7.811.679.679,0,0,0-.229-.792c-.473-.382-.913-.8-1.367-1.209-.031-.1-.01-.152.106-.1a29.068,29.068,0,0,1,7.551,7.548,34.33,34.33,0,0,1,6.115,14.741c1.562,10.044-.689,19.1-7.41,26.865a29.3,29.3,0,0,1-12.773,8.231,32.3,32.3,0,0,1-12.691,1.813,34.139,34.139,0,0,1-21.045-8.479,34.637,34.637,0,0,1-11.507-19.951c-.158-.8-.277-1.613-.362-2.426-.11-1.058-.167-2.121-.247-3.2.284.012.309.24.4.384a45.637,45.637,0,0,0,16.7,15.745,42.128,42.128,0,0,0,14.243,4.663,37.123,37.123,0,0,0,14.731-.647,23.714,23.714,0,0,0,5.779-2.406.647.647,0,0,0,.4-.613,67.764,67.764,0,0,0-2.855-21.007c-.107-.357-.229-.468-.63-.378a2.876,2.876,0,0,1-1.942-.288.452.452,0,0,0-.667.13,42.494,42.494,0,0,1-14.415,11.014,37.549,37.549,0,0,1-9.378,2.994,4.691,4.691,0,0,1-.512.036C1600.263,552.818,1600.1,552.952,1600.048,552.694Z" transform="translate(-1570.459 -506.001)" fill="#fdffff"/>
      <path id="Path_1725" data-name="Path 1725" d="M1602.706,579.417a37.649,37.649,0,0,1-20.519-4.006,36.835,36.835,0,0,1-18.886-21.973,35.794,35.794,0,0,1,6.148-33.224,38.041,38.041,0,0,1,22.123-13.518,25.43,25.43,0,0,1,4.506-.685c.135-.027.3-.156.356.1a39.957,39.957,0,0,0-12.113,4.261c-8.859,4.932-15,12.12-17.972,21.882a33.862,33.862,0,0,0-1.261,13.042,36.044,36.044,0,0,0,12.021,24.083,37.319,37.319,0,0,0,18.911,9.281,33.716,33.716,0,0,0,5.326.571,7.745,7.745,0,0,0,1.077.044C1602.526,579.281,1602.719,579.17,1602.706,579.417Z" transform="translate(-1561.605 -504.519)" fill="#fdffff"/>
      <path id="Path_1726" data-name="Path 1726" d="M1634.2,504.535c-.1-.115-.232-.082-.356-.1a.716.716,0,0,0,.709-.676,1.037,1.037,0,0,1,1.152-.811,1.1,1.1,0,0,1,1.052.888,1.134,1.134,0,0,1-.552,1.262,1.122,1.122,0,0,1-1.407-.219C1634.63,504.707,1634.5,504.477,1634.2,504.535Z" transform="translate(-1599.372 -502.948)" fill="#fdffff"/>
      <path id="Path_1727" data-name="Path 1727" d="M1634.1,535.786c-.132.448-.479.511-.855.425a.633.633,0,0,1-.5-.723.647.647,0,0,1,.571-.617.611.611,0,0,1,.786.528A.35.35,0,0,1,1634.1,535.786Z" transform="translate(-1598.796 -519.63)" fill="#fdffff"/>
      <path id="Path_1728" data-name="Path 1728" d="M1646.245,659.689c-.425-.262-.931.063-1.358-.189h2.543A1.8,1.8,0,0,1,1646.245,659.689Z" transform="translate(-1605.144 -584.792)" fill="#bbdcdc"/>
      <path id="Path_1729" data-name="Path 1729" d="M1635.588,536.379c0-.129,0-.258,0-.387.371.337.867.219,1.294.353.14.044.3,0,.43.116l-.24.108A8.157,8.157,0,0,0,1635.588,536.379Z" transform="translate(-1600.282 -520.223)" fill="#606060"/>
      <path id="Path_1730" data-name="Path 1730" d="M1692.821,524.2l.117-.108.577.449c.025.1.007.158-.113.111Z" transform="translate(-1630.203 -513.999)" fill="#fdffff"/>
      <path id="Path_1731" data-name="Path 1731" d="M1694.038,525.139l.113-.111a.65.65,0,0,1,.384.521Z" transform="translate(-1630.839 -514.491)" fill="#fdffff"/>
      <path id="Path_1732" data-name="Path 1732" d="M1687.625,527.706l-.106.1-.46-.348a.092.092,0,0,1,0-.148A1.61,1.61,0,0,1,1687.625,527.706Z" transform="translate(-1627.172 -515.685)" fill="#fdffff"/>
      <path id="Path_1733" data-name="Path 1733" d="M1686.773,527.138l0,.148a.5.5,0,0,1-.3-.283C1686.629,526.925,1686.689,527.057,1686.773,527.138Z" transform="translate(-1626.882 -515.512)" fill="#fdffff"/>
      <path id="Path_1734" data-name="Path 1734" d="M1686.453,582.389c0-1.3.035-2.511-.006-3.723a67.732,67.732,0,0,0-2.849-17.336.764.764,0,0,1,.237-.966,3.736,3.736,0,0,0,.618-4.744.716.716,0,0,1,.015-.9c.459-.7.882-1.424,1.289-2.155.145-.261.235-.363.551-.211a44.585,44.585,0,0,1,9.734,6.125,2.068,2.068,0,0,1,.6,1.591,23.891,23.891,0,0,1-2.607,14.088,22.542,22.542,0,0,1-7.3,8.108A2.859,2.859,0,0,1,1686.453,582.389Z" transform="translate(-1625.343 -528.738)" fill="#18b5b5"/>
      <path id="Path_1735" data-name="Path 1735" d="M1692.211,535.069a30.2,30.2,0,0,1,6.882,12.553,1.061,1.061,0,0,1-.6-.25,79.762,79.762,0,0,0-8.484-4.207c-.389-.166-.461-.29-.266-.693a27.274,27.274,0,0,0,2.359-7.126A1.911,1.911,0,0,1,1692.211,535.069Z" transform="translate(-1628.538 -519.741)" fill="#18b5b5"/>
      <path id="Path_1736" data-name="Path 1736" d="M1676.991,557.739a2.58,2.58,0,0,1,2.431,2.6,2.154,2.154,0,0,1-2.136,2.27,2.522,2.522,0,0,1-2.415-2.6A2.132,2.132,0,0,1,1676.991,557.739Z" transform="translate(-1620.819 -531.592)" fill="#18b5b5"/>
      <path id="Path_1737" data-name="Path 1737" d="M1673.079,545.74c.847.314,1.555.564,2.254.838.9.353,1.8.734,2.7,1.083.331.128.4.26.2.577-.387.61-.742,1.242-1.09,1.875a.464.464,0,0,1-.594.263,1.958,1.958,0,0,0-1.016-.049.239.239,0,0,1-.33-.135C1674.577,548.727,1673.858,547.309,1673.079,545.74Z" transform="translate(-1619.882 -525.319)" fill="#68b3b3"/>
    </g>
  </g>
</svg>
