<svg xmlns="http://www.w3.org/2000/svg" width="123" height="123" viewBox="0 0 123 123">
  <g id="Group_186" data-name="Group 186" transform="translate(-439.668 -402.564)">
    <rect id="Rectangle_41" data-name="Rectangle 41" width="123" height="123" rx="16" transform="translate(439.668 402.564)" fill="#f85a40"/>
    <g id="Group_170" data-name="Group 170" transform="translate(463.668 426.564)">
      <path id="Path_1760" data-name="Path 1760" d="M66.364,21.569c-.237.248-.471.5-.69.77-.411.028-.808.069-1.2.114l-.415.055c-.82.109-1.619.248-2.386.414l-.185.04a29.476,29.476,0,0,0-7.943,2.748,22.6,22.6,0,0,0-2.731,1.668c-.458.3-.7.479-.7.479a15.685,15.685,0,0,0-2.126,1.9,1.754,1.754,0,0,0-.127.133c-.286.283-.558.575-.809.867-.167.181-.325.367-.475.553-.114.133-.224.27-.329.407a3.718,3.718,0,0,0-.233.3c-.123.146-.233.3-.347.451a25.036,25.036,0,0,0-4.648,17.688v.018c.009.062.009.119.018.181s.009.088.009.088a28.864,28.864,0,0,0,3.724,11.073.257.257,0,0,0,.022.035,31.306,31.306,0,0,0,4.78,6.013.036.036,0,0,1-.013,0c-.013-.009-.044-.018-.088-.039l-.124-.053c-.044-.022-.1-.044-.163-.075-.04-.017-.088-.039-.133-.061s-.088-.039-.137-.062c-3.244-1.521-17.291-8.9-14.808-21.784l0,0a33.088,33.088,0,0,1,8.93-14.705s.009,0,.013-.013.009-.009.013-.009c.211-.2.427-.4.647-.6a33.24,33.24,0,0,1,22.664-8.592Z" transform="translate(-24.667 -18.739)" fill="#fff"/>
      <path id="Path_1761" data-name="Path 1761" d="M88.156,102l-.031.031c-13.81,12.095-35,10.71-47.589-3.2a34.507,34.507,0,0,1-8.976-22.5C46.878,100.457,70.994,97.473,72.4,97.274a.246.246,0,0,1,.048,0,25.2,25.2,0,0,0,11.3-3.65c.106-.062.216-.129.321-.2a22.636,22.636,0,0,0,6-5.632c5.435-7.369,5.789-17.073,1.826-25.547-.045-.1-.089-.189-.133-.286-.058-.115-.111-.234-.173-.348v0c.215-.371.408-.742.584-1.127.173.269.342.537.5.81.226.375.444.753.657,1.137.515.943.99,1.9,1.413,2.881,0,0,0,0,0,.009C100.234,77.859,97.98,92.534,88.156,102Z" transform="translate(-23.476 -39.364)" fill="#fff"/>
      <path id="Path_1762" data-name="Path 1762" d="M17.741,55.72C16.33,36.615,30.254,20.515,49.142,17.2a1.125,1.125,0,1,0-.078-.4v.015c0,.012,0,.024,0,.036a1.109,1.109,0,0,0,.031.211c-20.528,1.893-36.13,18.764-34.642,38.927C15.961,76.4,34.124,91.7,55.023,90.161c.547-.041,1.089-.092,1.628-.155C36.46,90.643,19.207,75.6,17.741,55.72Z" transform="translate(-14.356 -15.609)" fill="#fff"/>
      <path id="Path_1763" data-name="Path 1763" d="M126.3,27.528c.525-4.814-.588-8.236-1.923-9.642a3.409,3.409,0,0,0-1.045-.7,3.418,3.418,0,0,0-1.257,0c-2.5.556-6.653,4.257-8.926,11.731-1.657,5.448-.92,12.959-2.16,24.411a.771.771,0,0,0,.575.781l.459.14.459.14h0a.772.772,0,0,0,.913-.327c5.365-10.194,10.17-16.014,11.837-21.459a27.57,27.57,0,0,0,1.067-5.074" transform="translate(-65.578 -16.384)" fill="#fff"/>
      <path id="Path_1764" data-name="Path 1764" d="M102.088,52.546a.653.653,0,0,0,.818-.7c-.127-6.894-2.337-17.764-.134-24.983,2.3-7.541,8.179-12.124,12.869-10.693a13.908,13.908,0,0,0-17.488,9.563c-1.964,6.437,1.81,14.208,3.495,26.315A.621.621,0,0,0,102.088,52.546Z" transform="translate(-58.483 -15.549)" fill="#fff"/>
      <path id="Path_1765" data-name="Path 1765" d="M132.517,33.7c-2.2,7.219-10.105,15-14.059,20.652a.652.652,0,0,0,.287,1.038h0a.621.621,0,0,0,.644-.166c8.157-9.1,15.627-13.444,17.591-19.881a13.907,13.907,0,0,0-9.17-17.7C132.5,19.075,134.818,26.158,132.517,33.7Z" transform="translate(-69.463 -16.659)" fill="#fff"/>
      <path id="Path_1766" data-name="Path 1766" d="M109.257,100.576v.022a1.318,1.318,0,0,1-.051.485l-.961,3.141c-.365.213-.722.439-1.066.683a9.235,9.235,0,0,0-1.034-.557,8.827,8.827,0,0,0-5.681-.534,1.322,1.322,0,0,1-.122-1.045l1.227-4.02a2.37,2.37,0,0,1,.549-.721l.273-.265a1.662,1.662,0,0,1,1.291-.45l-.473,1.2a.284.284,0,0,0,.151.388l4.474,1.275a.286.286,0,0,0,.335-.257l.195-1.285a1.06,1.06,0,0,1,.664.783l.184.957.013.04Z" transform="translate(-59.907 -58.889)" fill="#fff"/>
      <path id="Path_1767" data-name="Path 1767" d="M104.207,81.8a.5.5,0,0,1,0,.088c-.02.468-.054.931-.11,1.39-.026.247-.056.49-.095.728-.022.15-.047.3-.074.451-.013.11-.035.221-.056.327-.026.128-.048.256-.078.38-.026.141-.056.278-.092.42-.026.115-.052.225-.083.336s-.048.2-.078.3c-.039.15-.078.3-.126.45s-.092.314-.144.464a.737.737,0,0,1-.044.137c-.065.212-.14.424-.218.632-.013.04-.031.08-.044.119-.083.217-.166.429-.254.636a1.262,1.262,0,0,0-.048.119c-.1.226-.2.446-.307.667-.114.239-.233.477-.355.711s-.255.464-.386.69-.272.455-.417.681-.294.442-.448.663-.312.433-.475.646A24.388,24.388,0,0,1,91,99.977c-7.526,3.5-16.143,2.443-23.328-2.04-.155-.1-.31-.193-.46-.294a30,30,0,0,1-4.388-3.473c-.128-.123-.252-.242-.376-.365-.27-.264-.54-.537-.8-.814-.394-.414-.78-.84-1.151-1.28A32.611,32.611,0,0,1,58.029,88.4c-.094-.136-.182-.277-.271-.414A34.826,34.826,0,0,1,55.7,84.2c-.129-.278-.258-.56-.378-.842s-.24-.564-.351-.846c-.1-.251-.2-.5-.293-.749-.134-.366-.263-.727-.383-1.093-.08-.238-.161-.476-.232-.714a9.716,9.716,0,0,1,2.307-.285,9.547,9.547,0,0,1,4.385,1.05,9.619,9.619,0,0,0-2.4-1.678,11.844,11.844,0,0,1,16.976-2.953c.466,2.174.91,4.512,1.262,7.03l.023.2c.014.2.028.349.041.468a4.3,4.3,0,0,1-.383.306,3.1,3.1,0,0,0-1.112,1.574l-1.227,4.02A3.286,3.286,0,0,0,74.081,92c-.216.1-.423.218-.63.342.234-.067.472-.125.71-.174a8.6,8.6,0,0,1,3.239-.028,8.221,8.221,0,0,1,1.9.581l.071.031a8.523,8.523,0,0,1,3.384,2.73.2.2,0,0,1,.04.048c.022-.022.044-.049.066-.071a14.873,14.873,0,0,1,2.42-2.015,14.421,14.421,0,0,1,8.4-2.4,14.6,14.6,0,0,1,2.344.258,13.167,13.167,0,0,0-9.882-.648l.454-1.489a3.272,3.272,0,0,0-.015-1.964l-.1-.542c.194-.252.589-.695,1.192-1.327,1.394-1.509,2.776-2.9,4.1-4.174a14.9,14.9,0,0,1,12.424.649Z" transform="translate(-35.406 -46.391)" fill="#fff"/>
    </g>
  </g>
</svg>
