<svg xmlns="http://www.w3.org/2000/svg" width="123" height="123" viewBox="0 0 123 123">
  <g id="Group_187" data-name="Group 187" transform="translate(-657.668 -402.564)">
    <rect id="Rectangle_41" data-name="Rectangle 41" width="123" height="123" rx="16" transform="translate(657.668 402.564)" fill="#f48924"/>
    <g id="Group_169" data-name="Group 169" transform="translate(682.668 426.565)">
      <path id="Path_1738" data-name="Path 1738" d="M2069.842,546.358a38.566,38.566,0,0,1-7.389-4.7l1.257-.7c.245-.137.435.027.631.124.892.438,1.781.882,2.736,1.357a14.616,14.616,0,0,0-.054-2.367c-.021-.469.124-.641.6-.616.65.034,1.3.008,2.109.008a12.947,12.947,0,0,0-.986-1.033.637.637,0,0,1-.156-.881,9.727,9.727,0,0,1,4.154-4.566,13.633,13.633,0,0,1,5.983-1.685c.529-.039.965.3,1.553.325-.2-.675-.012-1.39-.439-2-.125-.18.062-.315.146-.448a7.948,7.948,0,0,1,4.77-3.663c.786-.2,1.237-.531,1.23-1.416a10.645,10.645,0,0,1,.254-1.732.774.774,0,0,1,.08-.322,4.127,4.127,0,0,1,2.087-.334,146.543,146.543,0,0,1,19.019,13.224,22.057,22.057,0,0,1,3.836,4.063,1.277,1.277,0,0,1,.225,1.1q-2.689,12.26-5.334,24.529a9.528,9.528,0,0,1-2.067,3.646,17.859,17.859,0,0,1-2.956,3.061c.28-1.321.525-2.5.777-3.672.929-4.33,1.864-8.659,2.778-12.992.035-.168.3-.459-.045-.565-.394-.12-.393.266-.459.494q-2.347,8.089-4.678,16.184a7.544,7.544,0,0,0-.3,1.087,2.316,2.316,0,0,1-1.459,1.819,22.377,22.377,0,0,1-12.795,2.454,37.9,37.9,0,0,1-9.91-2.117A23.508,23.508,0,0,1,2062.7,563.8a1.4,1.4,0,0,1-.229-.739q.01-9.49.006-18.979c0-.093.012-.187.024-.355a40.963,40.963,0,0,0,7.1,2.753c.176.108.406-.06.511.084A.786.786,0,0,1,2069.842,546.358Z" transform="translate(-2040.289 -521.66)" fill="#fefefe"/>
      <path id="Path_1739" data-name="Path 1739" d="M2032.589,589.188a52.782,52.782,0,0,0,4.67,6.315,42.2,42.2,0,0,0,24.421,14.157,40.1,40.1,0,0,0,8.88.746c5.388-.172,10.5-1.322,14.979-4.512a22.417,22.417,0,0,0,9.423-15.134,24.868,24.868,0,0,0-.068-8.223.949.949,0,0,1-.031-.334c.232-1.1.475-2.2.83-3.33.121.3.249.588.364.886a33.6,33.6,0,0,1,2.246,14.649,30.307,30.307,0,0,1-9.528,20.6,28.133,28.133,0,0,1-12.109,6.707c-13.435,3.6-25.095.359-34.778-9.595a33.041,33.041,0,0,1-8.936-18.441A30.285,30.285,0,0,1,2032.589,589.188Z" transform="translate(-2024.529 -551.853)" fill="#fefefe"/>
      <path id="Path_1740" data-name="Path 1740" d="M2056.558,597.336a9.4,9.4,0,0,1-2.45.24,37.328,37.328,0,0,1-22.311-6.5,35.422,35.422,0,0,1-15.4-22.558c-2.568-12.238.5-23.051,9.076-32.162a37.641,37.641,0,0,1,21.709-11.332c.724-.123,1.451-.238,2.181-.305.375-.034.6-.086.676-.532a1.034,1.034,0,0,1,1.128-.828,1.148,1.148,0,0,1,.529,2.129,1.052,1.052,0,0,1-1.422-.24c-.253-.4-.535-.367-.887-.3a38.944,38.944,0,0,0-13.141,5.123,36.071,36.071,0,0,0-15.887,20.245,33.067,33.067,0,0,0-1.515,11.218,35.785,35.785,0,0,0,9.282,23.2,37.962,37.962,0,0,0,27.979,12.6C2056.26,597.337,2056.409,597.336,2056.558,597.336Z" transform="translate(-2015.522 -522.556)" fill="#fefefe"/>
      <path id="Path_1741" data-name="Path 1741" d="M2050.046,574.606c-5.271-2.539-9.892-5.858-13-10.959a15.339,15.339,0,0,1-2.228-7.738,15.661,15.661,0,0,1,1.673-6.921q7.3-15.953,24.483-19.448a29.27,29.27,0,0,1,6.639-.511c.066,0,.13.014.221.023a4.065,4.065,0,0,1-2.566.9c-5.4.684-10.487,2.28-14.731,5.808a23.03,23.03,0,0,0-8.153,13.928c-1.573,8.734.714,16.469,6.389,23.236.447.534.935,1.034,1.4,1.55C2050.2,574.586,2050.167,574.641,2050.046,574.606Z" transform="translate(-2025.703 -525.542)" fill="#fefefe"/>
      <path id="Path_1742" data-name="Path 1742" d="M2077.827,573.958a2.456,2.456,0,0,1,.819.375,2.066,2.066,0,0,1-1.061-.256C2077.676,574.058,2077.776,574.06,2077.827,573.958Z" transform="translate(-2048.274 -549.259)" fill="#f7e8d9"/>
      <path id="Path_1743" data-name="Path 1743" d="M2067.065,625.405l.13-.13c.095.054.238.157.177.227C2067.275,625.613,2067.151,625.5,2067.065,625.405Z" transform="translate(-2042.723 -576.341)" fill="#e6ae74"/>
      <path id="Path_1744" data-name="Path 1744" d="M2106.09,537.091a49,49,0,0,0-4.707-4.058,78.453,78.453,0,0,0-8.347-5.713c-.4-.239-.656-.488-.463-.981.006-.017,0-.038.01-.056.109-.387-.138-.991.239-1.13.276-.1.738.276,1.107.461a56.761,56.761,0,0,1,15.972,11.611,39.469,39.469,0,0,1,3.219,3.869,1.008,1.008,0,0,1,.188.891q-.95,4.277-1.871,8.559a.525.525,0,0,1-.536.5,57.8,57.8,0,0,1-14.144.12,78.062,78.062,0,0,1-22.113-5.945c0-.213.12-.14.229-.1,2.412.509,4.822,1.029,7.236,1.527,6.232,1.287,12.491,2.427,18.809,3.212,1.776.221,3.559.384,5.348.463.179.008.447.135.461-.223.014-.336-.247-.214-.4-.225a195.557,195.557,0,0,1-26.256-4.146c-2.3-.479-4.594-1.015-6.9-1.492-.473-.1-.616-.3-.561-.755a8.879,8.879,0,0,0,.073-1.41c-.016-.391.138-.453.488-.462a24.617,24.617,0,0,1,5.2.613q9.543,1.806,19.09,3.59l8.824,1.659c.093.017.186.033.279.043.178.021.388.117.426-.19.032-.265-.167-.246-.325-.283-1.6-.367-3.19-.738-4.787-1.1l-26.976-6.152c-.142-.033-.28-.088-.456-.145a9.377,9.377,0,0,1,3.979-4.084,12.762,12.762,0,0,1,5.532-1.424,2.936,2.936,0,0,1,1.14.282c7.542,2.611,15.119,5.116,22.686,7.65.427.143.545,0,.675-.357.276-.762.291-.753-.441-1.085q-10.414-4.732-20.832-9.455c-.435-.2-.409-.335-.135-.652a7.338,7.338,0,0,1,4.1-2.552,2.162,2.162,0,0,1,1.622.223,88.561,88.561,0,0,1,12.748,8.675c.144.121.3.23.446.345a3.139,3.139,0,0,1,.928.735c.125.118.244.241.365.363a3.851,3.851,0,0,1,.439.485c.04.028.079.057.12.081-.04-.029-.082-.054-.124-.084a2.648,2.648,0,0,0-.376-.432c-.153-.157-.306-.313-.464-.464C2106.62,537.6,2106.24,537.457,2106.09,537.091Z" transform="translate(-2045.641 -523.495)" fill="#da8732"/>
      <path id="Path_1745" data-name="Path 1745" d="M2101.608,539.684l10.369,4.867-.048.13c-.89-.28-1.782-.557-2.671-.841-2.347-.748-4.69-1.514-7.045-2.236-.467-.143-.651-.357-.61-.831C2101.633,540.439,2101.608,540.1,2101.608,539.684Z" transform="translate(-2060.946 -531.172)" fill="#fefefe"/>
      <path id="Path_1746" data-name="Path 1746" d="M2093.221,561.029c-1.573-.283-3.148-.559-4.72-.851-3.164-.586-6.323-1.2-9.493-1.755a2.162,2.162,0,0,1-1.406-1.017,7.081,7.081,0,0,1,1.928.348q6.719,1.513,13.43,3.062c.128.03.253.075.379.112C2093.353,561.024,2093.342,561.091,2093.221,561.029Z" transform="translate(-2048.284 -540.523)" fill="#fefdfd"/>
      <path id="Path_1747" data-name="Path 1747" d="M2143.375,550.449a3.482,3.482,0,0,1,.8.768.1.1,0,0,1-.014.156l-.917-.807Z" transform="translate(-2082.927 -536.853)" fill="#e09950"/>
      <path id="Path_1748" data-name="Path 1748" d="M2111.979,565.1a2.067,2.067,0,0,1,.9.293,2.9,2.9,0,0,1-1.028-.178C2111.865,565.143,2111.936,565.136,2111.979,565.1Z" transform="translate(-2066.359 -544.584)" fill="#f4dec8"/>
      <path id="Path_1749" data-name="Path 1749" d="M2111.357,564.977l-.126.115c-.188-.029-.391.011-.556-.124l.118-.1Z" transform="translate(-2065.737 -544.461)" fill="#fcf7f2"/>
      <path id="Path_1750" data-name="Path 1750" d="M2114.78,565.8a.8.8,0,0,1-.631-.158c.235-.123.42.093.628.066.041.019.055.04.042.06S2114.793,565.8,2114.78,565.8Z" transform="translate(-2067.57 -544.848)" fill="#f3dbc2"/>
      <path id="Path_1751" data-name="Path 1751" d="M2115.483,565.912q0-.046,0-.092c.225.075.486.035.678.214l0-.006A.992.992,0,0,1,2115.483,565.912Z" transform="translate(-2068.273 -544.964)" fill="#eecaa5"/>
      <path id="Path_1752" data-name="Path 1752" d="M2076.774,567.294l-.229.1-.334-.112c-.031-.1-.005-.152.11-.115A.744.744,0,0,1,2076.774,567.294Z" transform="translate(-2047.543 -545.67)" fill="#f6e5d3"/>
      <path id="Path_1753" data-name="Path 1753" d="M2116.916,566.263c.193.018.407-.079.566.111l0,0c-.191-.023-.409.089-.564-.113Z" transform="translate(-2069.03 -545.193)" fill="#e9b885"/>
      <path id="Path_1754" data-name="Path 1754" d="M2118.114,566.5h.514c-.231.161-.377.146-.511,0Z" transform="translate(-2069.663 -545.323)" fill="#e3a565"/>
      <path id="Path_1755" data-name="Path 1755" d="M2075.979,567.078l-.11.115-.318-.132A.31.31,0,0,1,2075.979,567.078Z" transform="translate(-2047.202 -545.578)" fill="#ecc296"/>
      <path id="Path_1756" data-name="Path 1756" d="M2081.855,575.455c-.084-.012-.216,0-.241-.042-.1-.171.047-.1.113-.086a.917.917,0,0,1,.143.051Z" transform="translate(-2050.384 -549.968)" fill="#e19e58"/>
      <path id="Path_1757" data-name="Path 1757" d="M2145.19,552.231l.015-.156.465.469a.087.087,0,0,1-.145.01Z" transform="translate(-2083.952 -537.711)" fill="#e29f5c"/>
      <path id="Path_1758" data-name="Path 1758" d="M2145.9,553.079l.144-.01c.166.109.325.222.314.454l0-.005A1.4,1.4,0,0,1,2145.9,553.079Z" transform="translate(-2084.327 -538.235)" fill="#eabb8b"/>
      <path id="Path_1759" data-name="Path 1759" d="M2146.87,554.024c.23,0,.357.128.449.409a.867.867,0,0,1-.446-.414Z" transform="translate(-2084.839 -538.737)" fill="#f1d4b6"/>
    </g>
  </g>
</svg>
