<svg id="Group_21" data-name="Group 21" xmlns="http://www.w3.org/2000/svg" width="281" height="39.965" viewBox="0 0 281 39.965">
  <g id="Group_2" data-name="Group 2">
    <path id="Path_1" data-name="Path 1" d="M1075.383,63.1c-.146-.251-.572-.691-.695-.858-.459-.629-1.275-1.932-2-2.9-.459-.615-1.114-1.178-1.1-1.439.015-.3,1.048-.986,1.052-1.886a6.841,6.841,0,0,0-1.064-2.673,6.748,6.748,0,0,1-.628-2.017c-.012-.316,0-.848.577-.738.877.166,1.285-1.021,1.53-2.1a2.788,2.788,0,0,0-.787-2.578,2.287,2.287,0,0,0-2.894.419c-.671.64-.687,1.957-.913,3.036-.191.911-1.072,3.2-1.669,5.2-.312,1.038-1.416,3.776-1.576,4.181-.437,1.106-.705,3.474-1.192,5.049a3.149,3.149,0,0,1-.479.583c-.406.322-.714,1.314.034,1.512,1.478.391,1.337-1.4,1.374-1.512.367-1.092.97-2.288,1.349-3.589a12.244,12.244,0,0,1,.39-1.25c.047-.08.483-.993.656-1.233a7.677,7.677,0,0,1-.394,3.177,10,10,0,0,0-.629,2.105,9.192,9.192,0,0,0,1.1,5c.541,1.285,1.26,3.433,1.5,4.11l-1.055.646c-1.738,1.063-3.729,4.4-5.289,5.555-.194.144-.628.256-.855.565-.463.63.366,1.193.488,1.381.214.331,1.374,2.034,1.584,2.252.641.666.833-.514.534-1.047-.5-.882-.552-2.023-.206-2.354.368-.352,1.665-1.114,2.377-1.7.221-.181,1.558-1.041,1.558-1.041a10.648,10.648,0,0,0-.108,3.2c.115,1,.158,2.351.163,2.574a3.548,3.548,0,0,1-.325,1.445c-.293.67.091,1.19.509,1.19h4.415c.271-.309.024-.566-1.27-.912a1.85,1.85,0,0,1-1.5-1.456,14.19,14.19,0,0,1,.339-3.627c.16-.7.87-4.473.87-4.473a4.081,4.081,0,0,0,1.263-.946,3.825,3.825,0,0,0,.307-2.261,33.018,33.018,0,0,0-.778-6.423c-1.09-4.545-1.006-5.107-1.006-5.107a8.012,8.012,0,0,0,.846.9,16.785,16.785,0,0,1,2.192,2.014.967.967,0,0,1,.107.687c-.016.537.406,1.16.844.956A1.168,1.168,0,0,0,1075.383,63.1Z" transform="translate(-819.622 -45.433)" fill="#477dee"/>
    <path id="Path_2" data-name="Path 2" d="M1152.467,82.034c-.349.022-2.6.16-2.9-.169-1.2-1.314-2.432-6.012-3.122-7.463-.383-.807-2.309-7.422-3.67-10.293l.023-1.8s.571.231.7.313a15.11,15.11,0,0,1,2.779,2.075,8.865,8.865,0,0,1,.63.942c.3.493,1.137.476,1.713.111a1.043,1.043,0,0,0-.237-1.583,10.993,10.993,0,0,1-1.383-.777c-.287-.239-2.721-2.428-3.031-2.763-.2-.219-1.091-1.055-1.091-1.055a50.219,50.219,0,0,0-.725-5.7,8.852,8.852,0,0,1-.393-1.718c.006-.3-.068-1.72.617-1.6,1.107.2,1.732-2.058,1.592-3.4A2.235,2.235,0,0,0,1141.551,45a2.316,2.316,0,0,0-2,1.629,6.477,6.477,0,0,0,0,2.42c0,.184.022.552,0,.734a4.569,4.569,0,0,1-.437,1.592,10.508,10.508,0,0,0-2.1,2.305,28.8,28.8,0,0,0-1.663,5.019c-.679,2.277-1.034,5.779-1.559,6.648a3.2,3.2,0,0,0-.511,1.922c.112,1.295,1.54.952,1.826.394a5.017,5.017,0,0,0,.308-1.833,55.5,55.5,0,0,1,1.887-5.966s-.117,3.247-.161,3.784a23.345,23.345,0,0,0-.617,2.749c-.12.728-.132,1.373-.235,2.559a44.123,44.123,0,0,1-.771,5.215c-1.435,1.508-2.229,4.267-3.631,6.094-.241.315-1.48,1.182-.622,2.208a17.718,17.718,0,0,0,1.647,1.551,3.6,3.6,0,0,0,1.381.9c.356.048,1.011.042,1.072-.338.033-.2-.71-.551-.792-.652a4.013,4.013,0,0,1-.748-1.819.96.96,0,0,1,.146-.533c.264-.537,3.165-4.531,4-5.982a68.852,68.852,0,0,0,2.493-6.5c.48,1.481,2.952,5.791,4.078,7.892a34.136,34.136,0,0,0,2.812,5.7c.261.474.316,1.572.7,1.766.248.125.6.059,1.254-.269,1.9-.949,4.282-1.083,4.282-1.54C1153.593,82.239,1152.8,82.013,1152.467,82.034Z" transform="translate(-872.592 -45)" fill="#477dee"/>
    <path id="Path_3" data-name="Path 3" d="M958.749,148.385l.01-.022C958.75,148.362,958.747,148.37,958.749,148.385Z" transform="translate(-741.097 -123.92)" fill="#477dee"/>
    <path id="Path_4" data-name="Path 4" d="M274.694,85.281c.025-.061.177-.175.066-.366-.4-.686-3.436-.9-3.643-1.843-.04-.18.458-3.434.547-4.049.125-.874.584-4.482.872-5.984a42.578,42.578,0,0,0,.348-7.612l1.153,1.638,2.354-1.612a1.448,1.448,0,0,0,1.621-.461c.179-.207.151-.737.168-.805l2.788-2.366-4.013-5.5s-3.531,3.256-3.82,3.195a17.442,17.442,0,0,1-.05-2.247,9.751,9.751,0,0,0-.307-3.082,3.91,3.91,0,0,1-.437-1.678c.016-.052.186-.126.173-.367a3.638,3.638,0,0,0-.109-.613c-.054-.608.009-.783.552-.7,1.154.184,1.673-2.521,1.7-2.635a2.919,2.919,0,0,0-.473-1.844,2.146,2.146,0,0,0-2.317-.79,2.328,2.328,0,0,0-1.91,2.245c-.045.938.476,1.434.429,2.615a.915.915,0,0,1-.044.3,29.106,29.106,0,0,0-2.307,2.21,17.4,17.4,0,0,0-1.269,2.731c-.171.388-.573,1.136-.737,1.527a17.927,17.927,0,0,0-.719,2.192,22.768,22.768,0,0,0-.282,5.7.687.687,0,0,1-.158.262c-.055.063-.2.151-.262.209-.1.1-.4.328-.366.633.064.55.421,1.328,1.207,1.106.4-.113.633-.617.684-.684s.281-.451.317-.527a2.155,2.155,0,0,0,.107-.528c.012-.117-.011-.825,0-.942a29.722,29.722,0,0,1,.86-4.127,20.119,20.119,0,0,0,.823-2.133s.014,2.207,0,2.417c-.026.332-.183.983-.21,1.315-.008.105.017.318,0,.422a7.38,7.38,0,0,0-.743,2.926c.052,1.15.586,1.821.48,2.339-.089.437-.975,4.032-1.05,4.2a2.428,2.428,0,0,1-.263.37c-.311.4-.913,1.218-1.225,1.611-.556.7-2.177,3.3-2.177,3.3s-.776-2.712-1.107-3.654c-.2-.561-2.478-6.36-2.644-6.892-.089-.287-.965-4.136-.687-4.315a11.767,11.767,0,0,1,2.95,1.9c.089.1.657.751.733.889a.714.714,0,0,0,.737.37,6.862,6.862,0,0,0,.737-.1.95.95,0,0,0,.262-1.159,1.609,1.609,0,0,0-.366-.472c-.216-.169-2.46-1.527-2.629-1.631a22.864,22.864,0,0,1-2.262-2.473c-.11-1.269.495-1.736.341-2.854a5.737,5.737,0,0,0-1.23-2.51c-1.135-1.684-.88-3.366-.588-3.367.952,0,1.535-.343,1.884-1.785a3.5,3.5,0,0,0-.089-2.478,2.813,2.813,0,0,0-2.514-.99,2.089,2.089,0,0,0-1.692,1.342c-.914,2-.324,3.176-1.087,5.174-.3.8-1.617,2.683-1.085,3.638l-.065.315a41.043,41.043,0,0,1-1.5-4.06c-.044-.146.145-.333.153-.527a2.956,2.956,0,0,0-.065-.631c.022-.041.038-.426.361-.367,1.183.216,1.546-.9,1.7-1.578.278-1.184.2-2.43-.206-2.792a2.968,2.968,0,0,0-2.424-.737,2.148,2.148,0,0,0-1.68,2.211c.069,1.6.674,2.128.209,2.79-.153.217-2.954,1.75-3.483,3A28.346,28.346,0,0,0,243.8,60.6c-.025.169-1.089-.616-1.223-.737-.19-.171-.04-2.193-.385-4.2-.159-.925-.9-2.934-1-3.282-.074-.274-.019-1.294.26-1.239.958.19,1.821-1.837,1.844-2.735a3.079,3.079,0,0,0-.581-2.315,2.881,2.881,0,0,0-2.157-.581c-1.032.337-1.649.956-1.734,1.582a7.011,7.011,0,0,0,.21,2.313,4.091,4.091,0,0,1,0,.734,4.881,4.881,0,0,1-1,2.369,9.034,9.034,0,0,0-1.788,3.734,25.6,25.6,0,0,0-1.306-2.744,5.416,5.416,0,0,1-.455-1.036c-.2-.66-.338-1.32-.09-1.3,1.521.135,2.291-2.883,2.22-3.459a2.306,2.306,0,0,0-2.124-2.092,2.113,2.113,0,0,0-2.076,2.151c-.051.621-.04,2.024-.062,2.375a13.584,13.584,0,0,1-.3,1.35,9.45,9.45,0,0,0-1.227,2.441,6.819,6.819,0,0,1-.683-.951,4.876,4.876,0,0,1,.324-1.912,4.508,4.508,0,0,0,.539.055c.454,0,1.091-.776,1.178-2.474a3.008,3.008,0,0,0-.9-2.488,3.735,3.735,0,0,0-2.515-.651H38.368V85.281H238.59c.584,0,.2-.714-.208-.844a4.477,4.477,0,0,1-1.456-.825c-.226-.209-1.187-5.027-1.187-5.027l1.138-1.8,1.544,3.566a2.159,2.159,0,0,0-.581.955c-.142.771,1.1,2.558,1.237,2.812.295.543.664,1.165,1.06,1.165h.692a20.066,20.066,0,0,0,3.888-1c.657-.379.941-.593.761-.954-.135-.271-.922-.243-.987-.259a7.391,7.391,0,0,1-2.369-.422,2.419,2.419,0,0,1-.744-1.333s2.366-2.929,2.863-2.851c.372.059,2.452,4.629,2.476,4.713a7.488,7.488,0,0,0-.106,1.888c.04.153.4.216.444.216h5.307c.086-.02.779-.206.353-.633a6.614,6.614,0,0,0-1.192-.285c-.086-.035-.7-.149-.687-.242a13.619,13.619,0,0,0,1.561-.576c.136-.086.454-.226.529-.369a.59.59,0,0,0,.066-.612c-.122-.23-.844-.153-.962-.142a10.226,10.226,0,0,1-2,.071c-.151-1.685,2.9-6.389,3.143-6.731A55,55,0,0,0,256.03,69.8a46.338,46.338,0,0,0,3.213,5.282,34.883,34.883,0,0,1,1.932,4.089,3.87,3.87,0,0,1-1.063,1.13c-.324.129-1.023.45-1.134.721a.948.948,0,0,0,0,.731c.26.505,1.591,2.36,1.71,2.536a3.018,3.018,0,0,0,.753.843,2.4,2.4,0,0,0,1.389.149.526.526,0,0,0-.1-.509,4.652,4.652,0,0,1-.6-.788,3.525,3.525,0,0,1-.372-1.584,2.04,2.04,0,0,1,.486-1,12.489,12.489,0,0,1,.917,2.179,2.1,2.1,0,0,0,.3.847.805.805,0,0,0,.982.155c.437-.228,2.2-.929,2.591-1.066.319-.112,1.229-.651,1.1-1-.245-.655-2.242-.133-3.39-.464-.506-.146-.849-2.185-.849-2.185a26.182,26.182,0,0,1,2.338-2.477,17.708,17.708,0,0,0,2.9-3.157c.021-.042.057-.17.1-.157s0,.118,0,.157c-.013.186-.267,3.572-.281,5.676a17.146,17.146,0,0,1,.034,3.649c-.028.116-.172.534-.229.8a.958.958,0,0,0,.327.918Zm-45.922-2.97c-.051-.111.7-4,.7-4s1.119,2.832,1.169,3.083c0,0-.278.673-.408,1.03-.163.444.7,1.39.7,1.39A3.174,3.174,0,0,1,228.771,82.311Zm3.451-3.056s-.882-3.482-.87-3.6l.422-.528,1.311,2.913Zm1.486,4.271c-.322-.244-.584-1.4-.584-1.4l.759-1.366.754,2.632S233.924,83.689,233.709,83.527Zm6.576-5.042a27.39,27.39,0,0,1-1.439-3.947c-.006-.218.986-1.957,1.457-1.9a13.3,13.3,0,0,1,2.079,3.336A14.969,14.969,0,0,1,240.285,78.484Zm5.413-7.831c-.268.923-.649,2-.878,2,0,0-.646-1.32-1.312-3.144a11.146,11.146,0,0,1-.961-3.185,30.135,30.135,0,0,1-.039-3.466c.125-.077,1.028.435,1.124.59,0,0,.213,2.484.182,2.617a1.736,1.736,0,0,0-.359.91,1.3,1.3,0,0,0,1.205,1.415,1.234,1.234,0,0,0,1.141-.886A11.826,11.826,0,0,1,245.7,70.654Zm1.575,7.923L246.5,76.6c.05-.236.951-.984,1-.97Zm4.989-11.8a59.858,59.858,0,0,0-1.229,6.676c.4-2.558-.134-6.08-.107-6.843.053-1.505.473-6.367.854-7.043.023-.041,1.757,2.953,1.771,3.124C253.6,63.683,252.871,65.019,252.261,66.773Z" transform="translate(-38.368 -45.359)" fill="#477dee"/>
  </g>
  <g id="Group_4" data-name="Group 4" transform="translate(24.273 3.569)">
    <path id="Path_5" data-name="Path 5" d="M159.8,63.416c.278-.464.939-2.441,1.588-2.441.546,0,2.41,5.768,4.71,11.946,2.526,6.784,5.1,13.9,5.1,13.9.6,1.855,1.325,3.859,2.077,4.434,1.468,1.123,2.458.365,2.449,1.519-.005.65-1,.684-1.458.684H161.9c-.834,0-.792-.341-.8-.612-.013-1.112,2.943-.261,3.446-3.5.093-.6-.87-6.171-2.467-6.4a45.68,45.68,0,0,0-5.775-.19c-2.456,0-4.111-.044-4.76.049-1.529.232-3.439,3.7-3.668,6.26-.307,3.434,4.765,1.949,4.767,3.713,0,.189-.086.684-.5.684H141.982c-.788,0-.971-.22-.971-.591,0-1.114,2.359-1.021,3.518-3.2Zm-5.554,13.256c-.417.835-1.594,2.6-1.594,3.156,0,.835,2.635.568,3.747.568,3.1,0,5.2.1,5.427-.357.207-.417-1.053-3-1.47-4.156l-1.4-3.657c-.324-.882-.728-1.485-1.006-1.485-.613,0-.634.482-1.061,1.253Z" transform="translate(-141.011 -60.766)" fill="#fff"/>
    <path id="Path_6" data-name="Path 6" d="M293.012,88.648c-.118,4.464,4.217,3.059,4.152,4.807-.023.618-.953.77-1.171.77h-12.3c-.957,0-.673-.046-.756-.668-.165-1.23.529-.329,1.853-1.5a4.125,4.125,0,0,0,1.449-2.486c.473-3.59,1.7-19.65,1.7-19.65.087-.762.555-3.718-.136-4.7-1.606-2.274-3.877-.459-3.682-2.3.062-.58,1.376-.848,2.159-.848,1.043,0,2.565.047,6.173.047,1.435,0,3.512-.091,4.73-.091.608,0,1.7.067,1.7.56,0,1.48-3.463.606-3.826,3.919C294.443,72.077,293.039,87.617,293.012,88.648Z" transform="translate(-249.352 -61.577)" fill="#fff"/>
    <path id="Path_7" data-name="Path 7" d="M372.718,75.868c4.447-.811,3.459-4.191,4.829-4.19.543,0,.644.434.5,1.27a66.735,66.735,0,0,0-.79,8.694c-.017.458-.341.973-.824.936-1.126-.085.048-4.686-4.907-4.583a8.659,8.659,0,0,0-3.5.513c-.84.424-.725,3.093-.889,5.668-.122,1.923-.347,3.9-.361,4.313-.1,2.941.416,3.306,3.221,3.263,9.922-.15,10.962-6.167,11.959-6.094,0,0,.89-.231.6,1.266-.836,4.365-3.062,6.779-5.78,7.272H357.032c-.633,0-1.081-.11-1.081-.384,0-2.186,3.345-.317,3.931-4.926l1.754-17.3c.125-2.445.02-4.494.02-5.224,0-3.376-3.881-1.928-3.922-3.47-.021-.775,1.08-.9,1.216-.9,2.9,0,5.747.05,8.643.05,10.226,0,12.737-.01,13.732-.01.543,0,1.146.07,1.138.526-.031,1.705-.435,3.467-.446,4.525-.018,1.776.111,2.6-.692,2.78-1.282.281-.458-2.69-1.686-3.947-1.184-1.476-5.193-1.531-7.151-1.524-1.2,0-2.458-.309-3.286.485-.458.44-.53,2.277-.741,4.614-.136,1.51-.27,3.494-.465,4.988-.161,1.235.029,1.539,1.287,1.539Z" transform="translate(-305.122 -61.541)" fill="#fff"/>
    <path id="Path_8" data-name="Path 8" d="M588.336,75.868c4.447-.811,3.459-4.191,4.829-4.19.543,0,.644.434.5,1.27a66.739,66.739,0,0,0-.79,8.694c-.017.458-.342.973-.824.936-1.126-.085.048-4.686-4.907-4.583a8.659,8.659,0,0,0-3.5.513c-.84.424-.725,3.093-.888,5.668-.122,1.923-.347,3.9-.361,4.313-.1,2.941.416,3.306,3.221,3.263,9.921-.15,10.962-6.167,11.959-6.094,0,0,.89-.231.6,1.266-.835,4.365-3.062,6.779-5.78,7.272H572.65c-.633,0-1.081-.11-1.081-.384,0-2.186,3.345-.317,3.931-4.926l1.754-17.3c.125-2.445.02-4.494.02-5.224,0-3.376-3.881-1.928-3.921-3.47-.021-.775,1.08-.9,1.216-.9,2.9,0,5.747.05,8.643.05,10.226,0,12.737-.01,13.732-.01.543,0,1.146.07,1.138.526-.031,1.705-.435,3.467-.446,4.525-.018,1.776.111,2.6-.692,2.78-1.282.281-.458-2.69-1.686-3.947-1.184-1.476-5.193-1.531-7.151-1.524-1.2,0-2.458-.309-3.286.485-.458.44-.53,2.277-.741,4.614-.136,1.51-.27,3.494-.465,4.988-.161,1.235.029,1.539,1.287,1.539Z" transform="translate(-469.751 -61.541)" fill="#fff"/>
    <path id="Path_9" data-name="Path 9" d="M500.511,69.439a1.023,1.023,0,0,1-.941.894c-1.047.039-.646-2-2.473-4.529a8.9,8.9,0,0,0-6.309-3.582c-2.868-.015-5.717,1-5.993,4.287-.278,3.307,1.693,4.5,9.117,6.973,3.068,1.023,6.325,3.652,6.422,7.212.238,8.7-6.814,13.009-11.971,12.435a50.545,50.545,0,0,1-5.357-1.1c-1.749-.418-3.149-.745-3.267-1.263,0,0-.887-5.731-1.121-7.118-.165-.975.291-1.226.808-1.218.9.013,1.191,2.652,2.962,5.049a8.837,8.837,0,0,0,6.764,3.793c3.009,0,6.387-1.6,6.719-5.39.211-2.415-1.148-3.745-2.96-4.635-2.788-1.369-6.2-1.645-10.033-4.7-2.643-2.173-2.592-4.591-2.641-7.321-.084-4.7,5.289-9.137,10.131-9.137,3.291,0,6.351,1.891,7.761,1.891.376,0,1.418-.937,1.794-.937.8,0,.636.917.636,1.576C500.559,62.623,500.511,67.98,500.511,69.439Z" transform="translate(-398.755 -60.093)" fill="#fff"/>
    <path id="Path_10" data-name="Path 10" d="M722.182,70.077c.031,1.237.211,1.88-.593,1.937-.886.063-1.683-4.775-6-7.451a12.666,12.666,0,0,0-5.622-1.57c-2.289-.2-10.939,1.085-11.312,14.66-.179,6.489,3.221,12.862,9.834,12.944,7.108.088,11.031-5.891,12.191-5.891.4,0,.58-.039.58.419,0,1.971-7.374,8.86-14.722,8.86-8.092,0-15.843-5.308-15.016-15.02.277-3.249,1.266-7.718,3.762-11.064a17.374,17.374,0,0,1,13.588-6.625c6.427,0,9.321,2.355,10.468,2.523s1.548-2.66,2.57-1.766C722.2,62.288,722.153,68.916,722.182,70.077Z" transform="translate(-561.291 -60.996)" fill="#fff"/>
    <g id="Group_3" data-name="Group 3" transform="translate(159.52 29.962)">
      <path id="Path_11" data-name="Path 11" d="M819.744,188.377a2.2,2.2,0,0,0-.214-.516,2.1,2.1,0,0,0-.333-.436,2.205,2.205,0,0,0-.43-.337,2.084,2.084,0,0,0-2.142,0,2.164,2.164,0,0,0-1.052,1.863,2.14,2.14,0,0,0,.291,1.085,2.187,2.187,0,0,0,.761.772,2.087,2.087,0,0,0,2.142,0,2.2,2.2,0,0,0,.43-.337,2.117,2.117,0,0,0,.333-.435,2.169,2.169,0,0,0,.214-.514,2.2,2.2,0,0,0,0-1.143Zm-.272,1.077a1.953,1.953,0,0,1-.184.452,1.846,1.846,0,0,1-.286.382,1.826,1.826,0,0,1-.372.293,1.843,1.843,0,0,1-1.426.188,1.761,1.761,0,0,1-.437-.188,1.863,1.863,0,0,1-.369-.293,1.8,1.8,0,0,1-.285-.382,1.955,1.955,0,0,1-.246-.956,1.994,1.994,0,0,1,.064-.507,1.93,1.93,0,0,1,.182-.455,1.867,1.867,0,0,1,.285-.385,1.79,1.79,0,0,1,.806-.486,1.819,1.819,0,0,1,1.212.081,1.831,1.831,0,0,1,.585.407,1.96,1.96,0,0,1,.471,1.849Z" transform="translate(-815.574 -186.793)" fill="#fff"/>
      <path id="Path_12" data-name="Path 12" d="M821.235,192.251a1.208,1.208,0,0,0-.135.077.959.959,0,0,1-.14.075,1.034,1.034,0,0,1-.179.057,1.151,1.151,0,0,1-.253.023.857.857,0,0,1-.333-.063.731.731,0,0,1-.263-.184.863.863,0,0,1-.173-.3,1.337,1.337,0,0,1,0-.8.819.819,0,0,1,.177-.3.781.781,0,0,1,.279-.19,1,1,0,0,1,.834.041,1.22,1.22,0,0,1,.118.072.147.147,0,0,0,.086.033.09.09,0,0,0,.055-.018.231.231,0,0,0,.038-.035l.134-.192a1.29,1.29,0,0,0-.385-.264,1.3,1.3,0,0,0-.536-.1,1.389,1.389,0,0,0-.528.1,1.232,1.232,0,0,0-.7.7,1.474,1.474,0,0,0-.1.547,1.552,1.552,0,0,0,.091.542,1.266,1.266,0,0,0,.259.427,1.165,1.165,0,0,0,.4.28,1.3,1.3,0,0,0,.519.1,1.4,1.4,0,0,0,.577-.108,1.131,1.131,0,0,0,.406-.3l-.174-.188A.1.1,0,0,0,821.235,192.251Z" transform="translate(-818.37 -189.381)" fill="#fff"/>
    </g>
  </g>
</svg>
