<svg xmlns="http://www.w3.org/2000/svg" width="71" height="71" viewBox="0 0 71 71">
  <g id="facebook_2_" data-name="facebook (2)" opacity="0.7">
    <path id="Path_1795" data-name="Path 1795" d="M62.125,0H8.875A8.884,8.884,0,0,0,0,8.875v53.25A8.884,8.884,0,0,0,8.875,71h53.25A8.884,8.884,0,0,0,71,62.125V8.875A8.884,8.884,0,0,0,62.125,0Z" fill="#1976d2"/>
    <path id="Path_1796" data-name="Path 1796" d="M39.65,25.433H28.433V16.46c0-2.477,2.01-2.243,4.487-2.243h4.487V3H28.433a13.46,13.46,0,0,0-13.46,13.46v8.973H6V36.65h8.973V61.327h13.46V36.65h6.73Z" transform="translate(20.365 9.673)" fill="#fafafa" fill-rule="evenodd"/>
  </g>
</svg>
