<svg xmlns="http://www.w3.org/2000/svg" xmlns:xlink="http://www.w3.org/1999/xlink" width="758.918" height="454.927" viewBox="0 0 758.918 454.927">
  <defs>
    <clipPath id="clip-path">
      <path id="Path_1658" data-name="Path 1658" d="M389.673,425.969S401.9,433.1,408,421.926l44.748,23.75-69.7-.426Z" transform="translate(-383.057 -421.926)" fill="#101010"/>
    </clipPath>
    <clipPath id="clip-path-2">
      <path id="Path_1665" data-name="Path 1665" d="M357.993,425.969s-12.229,7.131-18.333-4.043l-44.747,23.75,69.695-.426Z" transform="translate(-294.913 -421.926)" fill="#101010"/>
    </clipPath>
    <clipPath id="clip-path-3">
      <path id="Path_1687" data-name="Path 1687" d="M609.924,430.879s9,5.651,13.742-3.031L658.435,446.3l-54.153-.331Z" transform="translate(-604.283 -427.848)" fill="#101010"/>
    </clipPath>
    <clipPath id="clip-path-4">
      <path id="Path_1695" data-name="Path 1695" d="M592.433,430.879s-9,5.651-13.743-3.031L543.922,446.3l54.152-.331Z" transform="translate(-543.922 -427.848)" fill="#101010"/>
    </clipPath>
  </defs>
  <g id="Group_167" data-name="Group 167" transform="translate(0.496)">
    <g id="Group_47" data-name="Group 47" transform="translate(22.297 40.845)">
      <g id="Group_28" data-name="Group 28" transform="translate(14.348 140.588)">
        <g id="Group_23" data-name="Group 23" transform="translate(104.665 205.203)">
          <g id="Group_22" data-name="Group 22" transform="translate(0 45.348)">
            <path id="Path_1532" data-name="Path 1532" d="M186.741,439.742l10.887,5.993a3.141,3.141,0,0,1,1.495,3.469c-.283,1.089-1.213,1.921-3.634,1.969-5.383.107-29.2-3.861-29.2-3.861v3.06l-11.129.028s-.7-15.8,2.67-17.858Z" transform="translate(-155.101 -428.443)" fill="#262722"/>
            <path id="Path_1533" data-name="Path 1533" d="M171.866,430.4l14.585,9.776s-1.877,5.383-10.188,1.795-18.722-9-18.722-9l1.517-4.1Z" transform="translate(-154.811 -428.878)" fill="#e8af94"/>
          </g>
          <path id="Path_1534" data-name="Path 1534" d="M159.058,433.7l-1.518-45.348L172,389.3v50.621Z" transform="translate(-154.811 -388.348)" fill="#e8af94"/>
        </g>
        <g id="Group_25" data-name="Group 25" transform="translate(0 205.203)">
          <g id="Group_24" data-name="Group 24" transform="translate(0 45.348)">
            <path id="Path_1535" data-name="Path 1535" d="M74.031,439.742l-10.887,5.993A3.141,3.141,0,0,0,61.65,449.2c.283,1.089,1.213,1.921,3.634,1.969,5.383.107,29.2-3.861,29.2-3.861v3.2l10.973-.139s.853-15.767-2.513-17.83Z" transform="translate(-61.556 -428.443)" fill="#262722"/>
            <path id="Path_1536" data-name="Path 1536" d="M87.291,430.4l-14.585,9.776s1.876,5.383,10.188,1.795,18.722-9,18.722-9l-1.517-4.1Z" transform="translate(-60.23 -428.878)" fill="#e8af94"/>
          </g>
          <path id="Path_1537" data-name="Path 1537" d="M98.7,433.7l11.415-45.348-14.455.956L84.5,440.961Z" transform="translate(-58.828 -388.348)" fill="#e8af94"/>
        </g>
        <g id="Group_27" data-name="Group 27" transform="translate(27.772)">
          <g id="Group_26" data-name="Group 26">
            <path id="Path_1538" data-name="Path 1538" d="M172.583,204.947s19.741,28.284,19.207,59.205S184.8,441.764,184.8,441.764H161.3l-7.438-191.682-3.1-.19L108.308,441.84l-21.931-2.323,25.487-173.572a141.175,141.175,0,0,1,9.074-32.5c3.711-8.9,8.8-19.038,15.16-26.894Z" transform="translate(-86.377 -204.947)" fill="#e180a0"/>
            <line id="Line_28" data-name="Line 28" y1="2.618" x2="15.026" transform="translate(57.378 43.966)" fill="none" stroke="#000" stroke-linecap="round" stroke-linejoin="round" stroke-width="0.915"/>
          </g>
          <line id="Line_29" data-name="Line 29" x1="7.245" y2="20.851" transform="translate(38.215 18.612)" fill="none" stroke="#d4688f" stroke-linecap="round" stroke-linejoin="round" stroke-width="0.952"/>
        </g>
      </g>
      <path id="Path_1539" data-name="Path 1539" d="M120.271,99.726s-1.645,16.468-20.33,29.718c-19.923,14.128-5.076,53.236,31.506,51.412,39.74-1.98,56.23-53.034,30.3-91.811Z" transform="translate(-43.702 -78.137)" fill="#a74b22"/>
      <g id="Group_41" data-name="Group 41" transform="translate(0 55.885)">
        <g id="Group_29" data-name="Group 29" transform="translate(69.484 14.281)">
          <path id="Path_1540" data-name="Path 1540" d="M145.79,142.007,121.7,148.776c-6.952,1.954-12.521,9.329-10.421,16.238l21.688,49.08,36.7-1.665,12.9-53.175c1.107-7.225-6.387-13.785-13.648-14.611Z" transform="translate(-110.834 -142.007)" fill="#7b97fb"/>
          <path id="Path_1541" data-name="Path 1541" d="M120.549,148.776l24.086-6.769,23.138,2.636-.479.4a40.467,40.467,0,0,1-46.746,3.731Z" transform="translate(-109.679 -142.007)" fill="#e0a78f"/>
        </g>
        <g id="Group_32" data-name="Group 32" transform="translate(126.361 16.917)">
          <g id="Group_31" data-name="Group 31">
            <path id="Path_1542" data-name="Path 1542" d="M193.329,201.9l-27.424,24.338,4.8,8.285,31.669-19.3a12.736,12.736,0,0,0,5.184-15.364c-.112-.277-.234-.554-.365-.826l-3.676-7.648Z" transform="translate(-161.164 -138.773)" fill="#e0a78f"/>
            <g id="Group_30" data-name="Group 30">
              <path id="Path_1543" data-name="Path 1543" d="M185.38,159.379,208.2,198.4a5.221,5.221,0,0,1-3.208,6.893l-11,3.643a4.535,4.535,0,0,1-4.735-1.186c-4.048-4.3-21.83-17.868-21.269-34.442l-6.321-11.319,1.217-17.63C174.675,145.785,183.19,154.005,185.38,159.379Z" transform="translate(-161.668 -144.363)" fill="#7b97fb"/>
              <line id="Line_30" data-name="Line 30" y1="16.771" x2="5.1" transform="translate(8.802 23.862)" fill="none" stroke="#000" stroke-linecap="round" stroke-linejoin="round" stroke-width="0.865"/>
            </g>
            <path id="Path_1544" data-name="Path 1544" d="M175.066,223.72c-.6.537-4.184,16.469-4.184,16.469l-4.978-17.656Z" transform="translate(-161.164 -135.07)" fill="#e0a78f"/>
            <line id="Line_31" data-name="Line 31" x2="6.24" y2="21.944" transform="translate(4.114 85.409)" fill="none" stroke="#d4688f" stroke-linecap="round" stroke-linejoin="round" stroke-width="0.952"/>
          </g>
        </g>
        <g id="Group_40" data-name="Group 40">
          <g id="Group_35" data-name="Group 35" transform="translate(43.349 21.051)">
            <g id="Group_34" data-name="Group 34">
              <g id="Group_33" data-name="Group 33">
                <path id="Path_1545" data-name="Path 1545" d="M105.857,164.017,87.66,205.4a5.221,5.221,0,0,0,3.975,6.481l8.58,1.933c1.73.359,2.8,4.471,3.856,3.053,3.529-4.741,23.117-24.6,20.66-41l4.982-11.968-5.232-15.84C112.932,150.82,107.419,158.427,105.857,164.017Z" transform="translate(-87.475 -148.057)" fill="#7b97fb"/>
                <line id="Line_32" data-name="Line 32" x1="6.987" y1="16.077" transform="translate(29.142 23.623)" fill="none" stroke="#000" stroke-linecap="round" stroke-linejoin="round" stroke-width="0.865"/>
              </g>
            </g>
          </g>
          <g id="Group_39" data-name="Group 39">
            <g id="Group_36" data-name="Group 36" transform="translate(10.931 33.983)">
              <path id="Path_1546" data-name="Path 1546" d="M67.049,159.615l-8.547,3.5,34.44,49.264a9.52,9.52,0,0,0,14.572,3.109h0a9.522,9.522,0,0,0,1.57-13.062Z" transform="translate(-58.502 -159.615)" fill="#e0a78f"/>
            </g>
            <g id="Group_38" data-name="Group 38">
              <g id="Group_37" data-name="Group 37">
                <path id="Path_1547" data-name="Path 1547" d="M67.606,163.663l1.735-2.589a9.51,9.51,0,0,0,1.542-6.458l-.775-6.322s-.35-3.341-6.667-1.117-6.692,2.347-6.2,4.258c0,0,1.766,2.418,6.07,2.054Z" transform="translate(-47.739 -127.202)" fill="#e0a78f"/>
                <path id="Path_1548" data-name="Path 1548" d="M60.39,166.52s-7.181-2.165-9.909-13.334a3.846,3.846,0,0,1,.989-3.6c1.428-1.455,5.626-5.245,8.578-4.041l5.759,4.838,2.6,13.409Z" transform="translate(-48.537 -127.332)" fill="#e0a78f"/>
                <path id="Path_1549" data-name="Path 1549" d="M66.517,150.132l-.333-18.868a2.058,2.058,0,0,0-2.063-2.022h0a2.058,2.058,0,0,0-2.051,2.029l-.2,14.369-1.455.619-8.241-12.713a1.871,1.871,0,0,0-2.653-.508h0a1.871,1.871,0,0,0-.582,2.383l9.3,18.055Z" transform="translate(-48.732 -129.243)" fill="#e0a78f"/>
              </g>
              <path id="Path_1550" data-name="Path 1550" d="M65.485,146.577s-8.995,1.064-8.254,4.839c0,0,.42,2.855,6.07,2.054a5.344,5.344,0,0,0-2.562,5.635" transform="translate(-47.727 -127.182)" fill="none" stroke="#b9635e" stroke-linecap="round" stroke-linejoin="round" stroke-width="0.641"/>
            </g>
          </g>
        </g>
      </g>
      <g id="Group_46" data-name="Group 46" transform="translate(72.846 0)">
        <g id="Group_42" data-name="Group 42" transform="translate(0 31.376)">
          <ellipse id="Ellipse_5" data-name="Ellipse 5" cx="6.618" cy="6.618" rx="6.618" ry="6.618" transform="translate(0 10.281) rotate(-50.962)" fill="#e0a78f"/>
          <path id="Path_1551" data-name="Path 1551" d="M118.743,115.139s2.514-1.5,5.4,2.846" transform="translate(-113.256 -106.441)" fill="none" stroke="#b9635e" stroke-linecap="round" stroke-linejoin="round" stroke-width="0.661"/>
        </g>
        <g id="Group_43" data-name="Group 43" transform="translate(39.954 30.92)">
          <path id="Path_1552" data-name="Path 1552" d="M149.572,114.106a6.618,6.618,0,1,0,6.039-7.152A6.618,6.618,0,0,0,149.572,114.106Z" transform="translate(-149.548 -106.931)" fill="#e0a78f"/>
          <path id="Path_1553" data-name="Path 1553" d="M159.21,111.652s-2.759-.978-4.737,3.847" transform="translate(-148.962 -106.379)" fill="none" stroke="#b9635e" stroke-linecap="round" stroke-linejoin="round" stroke-width="0.661"/>
        </g>
        <ellipse id="Ellipse_6" data-name="Ellipse 6" cx="22.764" cy="21.248" rx="22.764" ry="21.248" transform="translate(1.93 3.83) rotate(-4.826)" fill="#a74b22"/>
        <g id="Group_44" data-name="Group 44" transform="translate(21.722 51.738)">
          <path id="Path_1554" data-name="Path 1554" d="M146.945,125.537s-2.632,2.86-5.178,3.723-5.245-.893-5.28-.914l-3.234-2.023.613,21.807.368.333c4.818,4.373,11.184,3.9,15.247-1.129l.594-.735Z" transform="translate(-133.253 -125.537)" fill="#e0a78f"/>
        </g>
        <path id="Path_1555" data-name="Path 1555" d="M131.2,123.917s4.729,12.374,11.249,11.7c5.359-.556,5.851-12.507,5.851-12.507Z" transform="translate(-111.775 -74.088)" fill="#1e0b02"/>
        <path id="Path_1556" data-name="Path 1556" d="M157.635,103.738a75.76,75.76,0,0,1-.546,17.844c-.658,4.369-3.317,7.62-7.238,10.4l-.715.5a14.973,14.973,0,0,1-14.462,1.449h0c-4.7-2.073-8.133-5.053-9.51-9.555a110.64,110.64,0,0,1-3.523-17.414S118.508,87.79,137.951,86.4,157.635,103.738,157.635,103.738Z" transform="translate(-112.934 -78.46)" fill="#e0a78f"/>
        <g id="Group_45" data-name="Group 45" transform="translate(11.931 22.783)">
          <path id="Path_1557" data-name="Path 1557" d="M137.048,112.18l.235,2.788,1.906-.161" transform="translate(-123.011 -98.17)" fill="none" stroke="#b9635e" stroke-linecap="round" stroke-linejoin="round" stroke-width="0.661"/>
          <path id="Path_1558" data-name="Path 1558" d="M124.5,104.616l10.191-1.794s-1.145-2.582-5.26-1.8C125.223,101.822,124.5,104.616,124.5,104.616Z" transform="translate(-124.502 -99.514)"/>
          <path id="Path_1559" data-name="Path 1559" d="M150.829,102.376l-10.346-.058s.695-2.738,4.883-2.657C149.651,99.743,150.829,102.376,150.829,102.376Z" transform="translate(-122.602 -99.658)"/>
          <path id="Path_1560" data-name="Path 1560" d="M132.436,109.351a1.577,1.577,0,1,1-1.7-1.439A1.578,1.578,0,0,1,132.436,109.351Z" transform="translate(-123.933 -98.678)" fill="#1e0b02"/>
          <path id="Path_1561" data-name="Path 1561" d="M146.218,108.189a1.577,1.577,0,1,1-1.7-1.44A1.577,1.577,0,0,1,146.218,108.189Z" transform="translate(-122.295 -98.816)" fill="#1e0b02"/>
          <path id="Path_1562" data-name="Path 1562" d="M133.26,118.674s4.565,2.01,11.4-.963" transform="translate(-123.461 -97.512)" fill="none" stroke="#000" stroke-linecap="round" stroke-linejoin="round" stroke-width="0.661"/>
        </g>
        <path id="Path_1563" data-name="Path 1563" d="M156.51,99.585s-28.493,3.485-28.7-13.38C127.807,86.206,152.119,77.043,156.51,99.585Z" transform="translate(-112.178 -78.694)" fill="#a74b22"/>
        <path id="Path_1564" data-name="Path 1564" d="M120.912,102.36s9.687-5.049,8.818-15.342C129.729,87.018,119.536,89.075,120.912,102.36Z" transform="translate(-113.013 -78.378)" fill="#a74b22"/>
      </g>
    </g>
    <g id="Group_77" data-name="Group 77" transform="translate(177.096 48.414)">
      <g id="Group_58" data-name="Group 58" transform="translate(0 165.235)">
        <g id="Group_51" data-name="Group 51" transform="translate(0 187.953)">
          <path id="Path_1565" data-name="Path 1565" d="M233.54,408.218l-2.169,29.856-12.877.431-.865-36.782Z" transform="translate(-183.454 -401.724)" fill="#e8b499"/>
          <g id="Group_50" data-name="Group 50" transform="translate(0 29.926)">
            <g id="Group_49" data-name="Group 49">
              <g id="Group_48" data-name="Group 48">
                <path id="Path_1566" data-name="Path 1566" d="M235.6,431.5s-9,5.651-13.742-3.03l-34.768,18.454,54.153-.331Z" transform="translate(-187.085 -428.47)" fill="#da4412"/>
              </g>
              <rect id="Rectangle_42" data-name="Rectangle 42" width="54.154" height="4.735" transform="translate(0.002 18.454) rotate(-0.351)" fill="#fff"/>
              <path id="Path_1567" data-name="Path 1567" d="M215.01,437.176a.915.915,0,0,1-.376-.285,18.764,18.764,0,0,0-4.238-4.133.839.839,0,0,1-.251-1.2.947.947,0,0,1,1.258-.241,20.139,20.139,0,0,1,4.7,4.556.838.838,0,0,1-.2,1.207A.948.948,0,0,1,215.01,437.176Z" transform="translate(-184.362 -428.148)" fill="#fff"/>
              <path id="Path_1568" data-name="Path 1568" d="M211.055,439.155a.905.905,0,0,1-.375-.285,18.749,18.749,0,0,0-4.239-4.133.838.838,0,0,1-.249-1.2.943.943,0,0,1,1.256-.242,20.144,20.144,0,0,1,4.7,4.556.84.84,0,0,1-.2,1.208A.953.953,0,0,1,211.055,439.155Z" transform="translate(-184.832 -427.913)" fill="#fff"/>
              <path id="Path_1569" data-name="Path 1569" d="M207.1,441.132a.905.905,0,0,1-.376-.285,18.774,18.774,0,0,0-4.238-4.131.839.839,0,0,1-.251-1.2.942.942,0,0,1,1.257-.241,20.124,20.124,0,0,1,4.7,4.555.838.838,0,0,1-.2,1.208A.947.947,0,0,1,207.1,441.132Z" transform="translate(-185.302 -427.678)" fill="#fff"/>
            </g>
          </g>
        </g>
        <g id="Group_55" data-name="Group 55" transform="translate(81.426 187.953)">
          <path id="Path_1570" data-name="Path 1570" d="M263.522,408.218l2.169,29.856,12.877.431.865-36.782Z" transform="translate(-259.424 -401.724)" fill="#e8b499"/>
          <g id="Group_54" data-name="Group 54" transform="translate(0 29.926)">
            <g id="Group_53" data-name="Group 53" transform="translate(0)">
              <g id="Group_52" data-name="Group 52" transform="translate(0.031)">
                <path id="Path_1571" data-name="Path 1571" d="M265.529,431.5s9,5.651,13.742-3.03l34.769,18.454-54.154-.331Z" transform="translate(-259.887 -428.47)" fill="#da4412"/>
              </g>
              <rect id="Rectangle_43" data-name="Rectangle 43" width="4.735" height="54.154" transform="translate(0 22.858) rotate(-89.649)" fill="#fff"/>
              <path id="Path_1572" data-name="Path 1572" d="M281.029,437.176a.915.915,0,0,0,.376-.285,18.764,18.764,0,0,1,4.238-4.133.839.839,0,0,0,.251-1.2.947.947,0,0,0-1.258-.241,20.123,20.123,0,0,0-4.7,4.556.837.837,0,0,0,.2,1.207A.948.948,0,0,0,281.029,437.176Z" transform="translate(-257.494 -428.148)" fill="#fff"/>
              <path id="Path_1573" data-name="Path 1573" d="M284.984,439.155a.916.916,0,0,0,.376-.285,18.732,18.732,0,0,1,4.238-4.133.839.839,0,0,0,.251-1.2.944.944,0,0,0-1.258-.242,20.169,20.169,0,0,0-4.7,4.556.839.839,0,0,0,.2,1.208A.951.951,0,0,0,284.984,439.155Z" transform="translate(-257.024 -427.913)" fill="#fff"/>
              <path id="Path_1574" data-name="Path 1574" d="M288.938,441.132a.9.9,0,0,0,.376-.285,18.736,18.736,0,0,1,4.239-4.131.839.839,0,0,0,.25-1.2.942.942,0,0,0-1.256-.241,20.125,20.125,0,0,0-4.7,4.555.838.838,0,0,0,.2,1.208A.948.948,0,0,0,288.938,441.132Z" transform="translate(-256.554 -427.678)" fill="#fff"/>
            </g>
          </g>
        </g>
        <g id="Group_57" data-name="Group 57" transform="translate(28.405)">
          <g id="Group_56" data-name="Group 56">
            <path id="Path_1575" data-name="Path 1575" d="M282.218,233.74s4.133,25.994,4,116.473l2.934,93.686H260.859l-4.311-92.73-5.982-82.808H239.405V233.74Z" transform="translate(-209.27 -233.74)" fill="#262722"/>
            <path id="Path_1576" data-name="Path 1576" d="M219.407,233.74s-4.133,27.035-4,117.515L212.472,443.9h28.293l3.227-92.73,7.067-82.808H262.22V233.74Z" transform="translate(-212.472 -233.74)" fill="#262722"/>
            <line id="Line_33" data-name="Line 33" x2="21.697" transform="translate(27.009 34.621)" fill="none" stroke="#494949" stroke-linecap="round" stroke-linejoin="round" stroke-width="0.953"/>
          </g>
        </g>
      </g>
      <g id="Group_69" data-name="Group 69" transform="translate(7.74 73.627)">
        <g id="Group_62" data-name="Group 62" transform="translate(0 6.056)">
          <g id="Group_61" data-name="Group 61" transform="translate(0 20.219)">
            <g id="Group_60" data-name="Group 60" transform="translate(0 42.566)">
              <g id="Group_59" data-name="Group 59" transform="translate(2.842)">
                <path id="Path_1577" data-name="Path 1577" d="M216.891,221.787l-12.256,56.981-8.093-.418s2.592-35.25,5.6-58.82c.476-3.739,5.3-6.792,8.985-6.015h0C214.579,214.24,217.614,218.331,216.891,221.787Z" transform="translate(-196.542 -213.392)" fill="#e8b499"/>
              </g>
              <path id="Path_1578" data-name="Path 1578" d="M204,268.617a18.124,18.124,0,0,1,1.526,14.2l1.82,7.771a2.61,2.61,0,0,1-1.377,2.961h0a2.222,2.222,0,0,1-2.993-1.248l-1.816-4.391-.191,1.679a12.56,12.56,0,0,0,1.522,7.618l3.672,6.45a2.547,2.547,0,0,1,.027,2.423h0a2.124,2.124,0,0,1-3.633.367l-5.817-7.772a14.206,14.206,0,0,1-2.539-10.809l3.446-20.734Z" transform="translate(-194.002 -207.004)" fill="#e8b499"/>
            </g>
            <path id="Path_1579" data-name="Path 1579" d="M201.544,224.051l7.188-48.7,16.7,5.436-9.308,46.2Z" transform="translate(-193.106 -175.349)" fill="#e8b499"/>
          </g>
          <path id="Path_1580" data-name="Path 1580" d="M227.243,157.278s-11.281,1.345-17.076,16.29c-5.827,15.025-12.949,30.7-12.949,30.7l25.247,14.07Z" transform="translate(-193.62 -157.278)" fill="#4e8985"/>
        </g>
        <g id="Group_66" data-name="Group 66" transform="translate(84.604 5.673)">
          <g id="Group_65" data-name="Group 65" transform="translate(0 20.603)">
            <g id="Group_64" data-name="Group 64" transform="translate(12.707 17.401)">
              <g id="Group_63" data-name="Group 63">
                <path id="Path_1581" data-name="Path 1581" d="M291.834,232.657l55.147-30.035L343.642,190.9s-38.435,16.369-59.289,27.757c-3.309,1.807-4.394,8.492-2.326,11.644h0C283.964,233.256,288.878,234.591,291.834,232.657Z" transform="translate(-280.974 -190.901)" fill="#e8b499"/>
              </g>
            </g>
            <path id="Path_1582" data-name="Path 1582" d="M297.738,224.273,286.32,175.349l-16.7,5.436,13.125,50.068Z" transform="translate(-269.618 -175.349)" fill="#e8b499"/>
          </g>
          <path id="Path_1583" data-name="Path 1583" d="M270.383,156.935s12.2,1.446,18.407,16.674c6.081,14.925,12.125,28.7,12.125,28.7l-24.329,15.074Z" transform="translate(-269.527 -156.935)" fill="#4e8985"/>
        </g>
        <g id="Group_68" data-name="Group 68" transform="translate(20.382)">
          <path id="Path_1584" data-name="Path 1584" d="M282.96,159.329c-4.329-2.681-11.364-3.352-11.364-3.352l-19.557,1.975-19.558-1.975s-7.035.671-11.364,3.352l-.159,45.046L212.219,266.3l80.166.434-9.2-61.547Z" transform="translate(-212.219 -151.376)" fill="#4e8985"/>
          <g id="Group_67" data-name="Group 67" transform="translate(6.806)">
            <path id="Path_1585" data-name="Path 1585" d="M224.053,157.921l23.048-6.056h7.947l20.842,5.673h0c-10.658,9.99-37.114,18.181-50.647.849Z" transform="translate(-217.618 -151.865)" fill="#e8b499"/>
            <path id="Path_1586" data-name="Path 1586" d="M218.559,214.793l1.4-14.421-1.657-21.66" transform="translate(-218.302 -148.674)" fill="none" stroke="#000" stroke-linecap="round" stroke-linejoin="round" stroke-width="0.953"/>
            <path id="Path_1587" data-name="Path 1587" d="M277.06,213.7l-1.293-13.31,2.144-21.865" transform="translate(-211.471 -148.695)" fill="none" stroke="#000" stroke-linecap="round" stroke-linejoin="round" stroke-width="0.953"/>
          </g>
        </g>
      </g>
      <g id="Group_76" data-name="Group 76" transform="translate(33.083 0)">
        <path id="Path_1588" data-name="Path 1588" d="M285.749,144.982a14.98,14.98,0,0,1,.39-5.54,24.589,24.589,0,0,0-5.126-22.586c-4.327-5.226-5.405-12.958-5.405-12.958h0C272.43,93.426,261.662,86.16,251.862,86.16s-20.536,6.848-23.715,17.319h0s-1.434,8.291-5.439,13.377c-4.638,5.888-7.493,13.508-5.126,22.586a14.979,14.979,0,0,1,.39,5.54,7.608,7.608,0,0,1-1.32,3.773H287.07A7.619,7.619,0,0,1,285.749,144.982Z" transform="translate(-216.653 -86.048)" fill="#da4412"/>
        <g id="Group_70" data-name="Group 70" transform="translate(9.217 32.31)">
          <path id="Path_1589" data-name="Path 1589" d="M238.675,121.637a6.893,6.893,0,1,1-7.086-6.7A6.894,6.894,0,0,1,238.675,121.637Z" transform="translate(-224.89 -114.938)" fill="#e8b499"/>
          <path id="Path_1590" data-name="Path 1590" d="M227.553,120.251s2.741-1.335,5.354,3.427" transform="translate(-224.574 -114.326)" fill="none" stroke="#c47268" stroke-linecap="round" stroke-linejoin="round" stroke-width="0.689"/>
        </g>
        <g id="Group_71" data-name="Group 71" transform="translate(48.169 32.311)">
          <ellipse id="Ellipse_7" data-name="Ellipse 7" cx="6.894" cy="6.894" rx="6.894" ry="6.894" fill="#e8b499"/>
          <path id="Path_1591" data-name="Path 1591" d="M269.9,120.151s-2.777-1.258-5.254,3.577" transform="translate(-259.117 -114.336)" fill="none" stroke="#c47268" stroke-linecap="round" stroke-linejoin="round" stroke-width="0.689"/>
        </g>
        <ellipse id="Ellipse_8" data-name="Ellipse 8" cx="21.651" cy="21.651" rx="21.651" ry="21.651" transform="translate(9.315 42.123) rotate(-76.605)" fill="#da4412"/>
        <g id="Group_72" data-name="Group 72" transform="translate(26.683 52.579)">
          <path id="Path_1592" data-name="Path 1592" d="M256.062,133.438s-2.983,2.738-5.7,3.41-5.368-1.386-5.4-1.412l-3.18-2.383L240.5,155.74l.352.379c4.62,4.96,11.272,5.029,15.932.164l.681-.712Z" transform="translate(-240.501 -133.053)" fill="#e8b499"/>
        </g>
        <path id="Path_1593" data-name="Path 1593" d="M239.721,130.374s3.827,13.258,10.655,13.127c5.615-.106,7.172-12.468,7.172-12.468Z" transform="translate(-213.911 -80.792)" fill="#1e0b02"/>
        <path id="Path_1594" data-name="Path 1594" d="M269.092,111.674a78.873,78.873,0,0,1-2.131,18.473c-1.065,4.477-4.11,7.617-8.423,10.155l-.785.462a15.6,15.6,0,0,1-15.137.235h0c-4.7-2.562-8-5.957-9.034-10.75a115.151,115.151,0,0,1-2.13-18.384s-1.572-20.171,18.73-19.908S269.092,111.674,269.092,111.674Z" transform="translate(-214.897 -85.36)" fill="#e8b499"/>
        <g id="Group_75" data-name="Group 75" transform="translate(17.328 22.801)">
          <g id="Group_73" data-name="Group 73" transform="translate(2.625)">
            <path id="Path_1595" data-name="Path 1595" d="M246.81,119.453v2.954H248.8" transform="translate(-233.021 -104.891)" fill="none" stroke="#c47268" stroke-linecap="round" stroke-linejoin="round" stroke-width="0.689"/>
            <path id="Path_1596" data-name="Path 1596" d="M234.486,109.786l10.735-.968s-.961-2.782-5.3-2.33C235.478,106.949,234.486,109.786,234.486,109.786Z" transform="translate(-234.486 -106.439)"/>
            <path id="Path_1597" data-name="Path 1597" d="M262,109.786l-10.733-.968s.961-2.782,5.3-2.33C261.006,106.949,262,109.786,262,109.786Z" transform="translate(-232.491 -106.439)"/>
            <path id="Path_1598" data-name="Path 1598" d="M242.462,124.528h11.721s-.45,3.057-6.07,3.057C243.5,127.585,242.462,124.528,242.462,124.528Z" transform="translate(-233.538 -104.288)" fill="#fff"/>
            <path id="Path_1599" data-name="Path 1599" d="M243.5,116.006s-2.777-2.271-5.214,0" transform="translate(-234.034 -105.421)" fill="none" stroke="#1e0b02" stroke-linecap="round" stroke-linejoin="round" stroke-width="0.956"/>
            <path id="Path_1600" data-name="Path 1600" d="M257.511,116.009a3.619,3.619,0,0,0-5.081,0" transform="translate(-232.353 -105.424)" fill="none" stroke="#1e0b02" stroke-linecap="round" stroke-linejoin="round" stroke-width="0.956"/>
          </g>
          <g id="Group_74" data-name="Group 74" transform="translate(0 2.893)">
            <path id="Path_1601" data-name="Path 1601" d="M238.961,109.268l7.868,10.681s-2.373,4.536-6.153,4.031l-7.941-10.42S234.883,108.98,238.961,109.268Z" transform="translate(-232.069 -108.997)" fill="#fff" opacity="0.23"/>
            <path id="Path_1602" data-name="Path 1602" d="M256.256,109.268l7.867,10.681s-2.372,4.536-6.152,4.031l-7.941-10.42S252.177,108.98,256.256,109.268Z" transform="translate(-230.013 -108.997)" fill="#fff" opacity="0.23"/>
            <path id="Path_1603" data-name="Path 1603" d="M247.525,116.716a7.692,7.692,0,1,1-7.692-7.692A7.692,7.692,0,0,1,247.525,116.716Z" transform="translate(-232.14 -109.024)" fill="none" stroke="#fff" stroke-miterlimit="10" stroke-width="0.493"/>
            <path id="Path_1604" data-name="Path 1604" d="M264.839,116.716a7.693,7.693,0,1,1-7.692-7.692A7.692,7.692,0,0,1,264.839,116.716Z" transform="translate(-230.082 -109.024)" fill="none" stroke="#fff" stroke-miterlimit="10" stroke-width="0.493"/>
            <path id="Path_1605" data-name="Path 1605" d="M245.89,115.937a6,6,0,0,1,3.987,0" transform="translate(-230.505 -108.245)" fill="none" stroke="#fff" stroke-miterlimit="10" stroke-width="0.493"/>
          </g>
        </g>
        <path id="Path_1606" data-name="Path 1606" d="M229.7,107.38s18.1-3.445,21.832-16.952C251.533,90.428,232.281,83.6,229.7,107.38Z" transform="translate(-215.102 -85.649)" fill="#da4412"/>
        <path id="Path_1607" data-name="Path 1607" d="M267.41,107.38s-18.1-3.445-21.833-16.952C245.577,90.428,264.828,83.6,267.41,107.38Z" transform="translate(-213.215 -85.649)" fill="#da4412"/>
      </g>
    </g>
    <g id="Group_136" data-name="Group 136" transform="translate(297.742)">
      <g id="Group_100" data-name="Group 100" transform="translate(119.756)">
        <g id="Group_85" data-name="Group 85" transform="translate(24.736 185.249)">
          <g id="Group_80" data-name="Group 80" transform="translate(0 214.485)">
            <g id="Group_79" data-name="Group 79" transform="translate(0 28.426)">
              <path id="Path_1608" data-name="Path 1608" d="M477.559,425.459H457.4L424.053,443.3l57.333-.684Z" transform="translate(-424.053 -425.459)" fill="#a74b22"/>
              <g id="Group_78" data-name="Group 78" transform="translate(0 17.153)">
                <path id="Path_1609" data-name="Path 1609" d="M467.324,444.905a3.541,3.541,0,0,1,3.464,3.548l10.8-.118-.2-7.546-57.333.684.2,7.546,39.6-.481v-.011A3.549,3.549,0,0,1,467.324,444.905Z" transform="translate(-424.053 -440.79)" fill="#1e0b02"/>
              </g>
              <line id="Line_34" data-name="Line 34" x2="6.606" y2="1.805" transform="translate(19.409 6.569)" fill="none" stroke="#4e8985" stroke-linecap="round" stroke-linejoin="round" stroke-width="1.938"/>
              <line id="Line_35" data-name="Line 35" x2="6.606" y2="1.805" transform="translate(25.866 3.256)" fill="none" stroke="#4e8985" stroke-linecap="round" stroke-linejoin="round" stroke-width="1.938"/>
            </g>
            <rect id="Rectangle_44" data-name="Rectangle 44" width="20.551" height="28.426" transform="translate(32.956)" fill="#e6a9a0"/>
          </g>
          <g id="Group_83" data-name="Group 83" transform="translate(85.802 214.485)">
            <g id="Group_82" data-name="Group 82" transform="translate(0 28.426)">
              <path id="Path_1610" data-name="Path 1610" d="M504.744,425.459h20.162L558.25,443.3l-57.333-.684Z" transform="translate(-500.718 -425.459)" fill="#a74b22"/>
              <g id="Group_81" data-name="Group 81" transform="translate(0 17.153)">
                <path id="Path_1611" data-name="Path 1611" d="M515,444.905a3.54,3.54,0,0,0-3.464,3.548l-10.8-.118.2-7.546,57.332.684-.2,7.546-39.6-.481v-.011A3.549,3.549,0,0,0,515,444.905Z" transform="translate(-500.739 -440.79)" fill="#1e0b02"/>
              </g>
              <line id="Line_36" data-name="Line 36" x1="5.58" y2="2.831" transform="translate(32.544 6.569)" fill="none" stroke="#4e8985" stroke-linecap="round" stroke-linejoin="round" stroke-width="1.938"/>
              <line id="Line_37" data-name="Line 37" x1="4.554" y2="1.805" transform="translate(27.113 3.256)" fill="none" stroke="#4e8985" stroke-linecap="round" stroke-linejoin="round" stroke-width="1.938"/>
            </g>
            <path id="Path_1612" data-name="Path 1612" d="M522.923,400.054H502.373l2.2,28.426h20.551Z" transform="translate(-500.545 -400.054)" fill="#e6a9a0"/>
          </g>
          <g id="Group_84" data-name="Group 84" transform="translate(27.762)">
            <path id="Path_1613" data-name="Path 1613" d="M522.024,208.357c1.544,16.486,13.9,234.71,13.9,234.71H503.84L489.78,249.231l-5.779.11-3.741,193.727H449.608s-1.749-202.479.121-234.2Z" transform="translate(-448.865 -208.357)" fill="#4e8985"/>
            <line id="Line_38" data-name="Line 38" x2="23.508" transform="translate(27.034 41.018)" fill="none" stroke="#000" stroke-linecap="round" stroke-linejoin="round" stroke-width="0.953"/>
          </g>
        </g>
        <g id="Group_91" data-name="Group 91" transform="translate(64.055)">
          <path id="Path_1614" data-name="Path 1614" d="M471.273,49.551s8.886-12.025,24.632-4c17.262,8.8,7.934,27.758,7.934,27.758l-37.1-7.028Z" transform="translate(-458.297 -42.79)" fill="#a74b22"/>
          <path id="Path_1615" data-name="Path 1615" d="M464.452,72.683s-9.7-19.054,7.419-23.85l3.078,10.22Z" transform="translate(-458.895 -42.072)" fill="#a74b22"/>
          <g id="Group_86" data-name="Group 86" transform="translate(0 32.706)">
            <path id="Path_1616" data-name="Path 1616" d="M472.979,78.72a6.893,6.893,0,1,1-7.086-6.7A6.893,6.893,0,0,1,472.979,78.72Z" transform="translate(-459.194 -72.022)" fill="#e8b499"/>
            <path id="Path_1617" data-name="Path 1617" d="M461.858,77.334s2.74-1.335,5.353,3.427" transform="translate(-458.878 -71.41)" fill="none" stroke="#c47268" stroke-linecap="round" stroke-linejoin="round" stroke-width="0.689"/>
          </g>
          <g id="Group_87" data-name="Group 87" transform="translate(38.952 32.705)">
            <path id="Path_1618" data-name="Path 1618" d="M494.008,78.914a6.893,6.893,0,1,0,6.893-6.893A6.894,6.894,0,0,0,494.008,78.914Z" transform="translate(-494.008 -72.021)" fill="#e8b499"/>
            <path id="Path_1619" data-name="Path 1619" d="M504.2,77.234s-2.777-1.258-5.254,3.577" transform="translate(-493.421 -71.419)" fill="none" stroke="#c47268" stroke-linecap="round" stroke-linejoin="round" stroke-width="0.689"/>
          </g>
          <g id="Group_88" data-name="Group 88" transform="translate(14.926 55.121)">
            <path id="Path_1620" data-name="Path 1620" d="M492.821,92.418a23.291,23.291,0,0,1-7.428,3.419,11.322,11.322,0,0,1-7.029-1.4l-4.135-2.379-1.694,22.69.459.378a16.426,16.426,0,0,0,20.733.14l.888-.713Z" transform="translate(-472.535 -92.055)" fill="#e8b499"/>
          </g>
          <path id="Path_1621" data-name="Path 1621" d="M472.535,89.922s3.862,12.643,12.751,12.5c7.306-.116,8.486-12.5,8.486-12.5Z" transform="translate(-457.609 -37.188)" fill="#1e0b02"/>
          <path id="Path_1622" data-name="Path 1622" d="M503.409,69.647a85.942,85.942,0,0,1-2.126,19.3c-1.065,4.678-5.179,7.959-9.491,10.609l-.785.482c-4.563,2.8-8.337,2.9-13,.243h0c-4.7-2.68-9.071-6.227-10.106-11.235a125.511,125.511,0,0,1-2.135-19.209s-2.647-21.077,17.655-20.8S503.409,69.647,503.409,69.647Z" transform="translate(-458.426 -42.048)" fill="#e8b499"/>
          <g id="Group_89" data-name="Group 89" transform="translate(11.284 23.49)">
            <path id="Path_1623" data-name="Path 1623" d="M476.568,73.157a1.643,1.643,0,1,1-1.644-1.643A1.644,1.644,0,0,1,476.568,73.157Z" transform="translate(-468.804 -62.866)" fill="#1e0b02"/>
            <path id="Path_1624" data-name="Path 1624" d="M490.974,73.157a1.643,1.643,0,1,1-1.643-1.643A1.643,1.643,0,0,1,490.974,73.157Z" transform="translate(-467.092 -62.866)" fill="#1e0b02"/>
            <path id="Path_1625" data-name="Path 1625" d="M480.622,76.823v2.633h2.132" transform="translate(-467.932 -62.235)" fill="none" stroke="#c47268" stroke-linecap="round" stroke-linejoin="round" stroke-width="0.689"/>
            <path id="Path_1626" data-name="Path 1626" d="M469.28,67.132l10.734-.967s-.961-2.782-5.3-2.331C470.272,64.3,469.28,67.132,469.28,67.132Z" transform="translate(-469.28 -63.785)"/>
            <path id="Path_1627" data-name="Path 1627" d="M495.148,67.132l-10.733-.967s.961-2.782,5.3-2.331C494.156,64.3,495.148,67.132,495.148,67.132Z" transform="translate(-467.481 -63.785)"/>
            <path id="Path_1628" data-name="Path 1628" d="M477.338,82.53h10.589s-.5,3.244-5.451,3.244S477.338,82.53,477.338,82.53Z" transform="translate(-468.322 -61.556)" fill="#fff"/>
          </g>
          <g id="Group_90" data-name="Group 90" transform="translate(4.289 9.548)">
            <path id="Path_1629" data-name="Path 1629" d="M466.772,79.363s.8-25.818.465-26.553C467.237,52.81,458.084,61.268,466.772,79.363Z" transform="translate(-463.028 -51.147)" fill="#a74b22"/>
            <path id="Path_1630" data-name="Path 1630" d="M498.86,79.356l-1.374-28.032S506.288,60.069,498.86,79.356Z" transform="translate(-458.931 -51.324)" fill="#a74b22"/>
          </g>
          <path id="Path_1631" data-name="Path 1631" d="M475.242,50.766s-6.3,1.706-6.083,7.89-3.967,12.262-3.967,12.262l-1.91-6.18S461.806,53.222,475.242,50.766Z" transform="translate(-458.714 -41.842)" fill="#a74b22"/>
          <path id="Path_1632" data-name="Path 1632" d="M472.621,51.8s4.716-2.675,9.4,3.211c4,5.027,14.54,10.2,20.781,5.277,0,0-3.975-14.229-19.486-13.94S472.621,51.8,472.621,51.8Z" transform="translate(-457.683 -42.368)" fill="#a74b22"/>
        </g>
        <g id="Group_99" data-name="Group 99" transform="translate(0 72.521)">
          <path id="Path_1633" data-name="Path 1633" d="M458.97,120.032c-31.267,15.656-57.025,44.8-57.025,44.8l16.783,20.217L466,155.017Z" transform="translate(-401.945 -106.129)" fill="#eec86a"/>
          <g id="Group_94" data-name="Group 94" transform="translate(110.667 12.969)">
            <g id="Group_93" data-name="Group 93" transform="translate(31.356 113.778)">
              <g id="Group_92" data-name="Group 92">
                <path id="Path_1634" data-name="Path 1634" d="M528.879,228.7l9.409,23.982,7.27-.771-5.515-31.023Z" transform="translate(-528.879 -220.887)" fill="#e8b499"/>
              </g>
              <path id="Path_1635" data-name="Path 1635" d="M537.2,246.134a18.806,18.806,0,0,0-.672,14.8l-1.387,8.163a2.708,2.708,0,0,0,1.616,2.977h0a2.3,2.3,0,0,0,3.019-1.485l1.6-4.662.305,1.728a13.026,13.026,0,0,1-1.089,7.987l-3.389,6.915a2.639,2.639,0,0,0,.128,2.511h0a2.2,2.2,0,0,0,3.785.148l5.527-8.421a14.733,14.733,0,0,0,1.936-11.355l-4.9-21.25Z" transform="translate(-528.14 -218.117)" fill="#e8b499"/>
            </g>
            <path id="Path_1636" data-name="Path 1636" d="M510.567,119.2s11.01,2.77,16.874,19.305c11.748,33.124,23.931,121.876,23.931,121.876l-21.03,3.964-29.487-113.7Z" transform="translate(-500.854 -119.197)" fill="#eec86a"/>
          </g>
          <g id="Group_98" data-name="Group 98" transform="translate(50.516)">
            <g id="Group_97" data-name="Group 97">
              <g id="Group_95" data-name="Group 95" transform="translate(0 9.866)">
                <path id="Path_1637" data-name="Path 1637" d="M510.09,116.471l9.43,4.2a10.61,10.61,0,0,1,6.3,9.661l.335,102.324h-79.06v-102.4a10.613,10.613,0,0,1,6.509-9.788l9.626-4.037Z" transform="translate(-447.094 -116.424)" fill="#eec86a"/>
              </g>
              <g id="Group_96" data-name="Group 96" transform="translate(16.134)">
                <path id="Path_1638" data-name="Path 1638" d="M485.506,107.606l22.87,9.913s-23.5,21.234-46.862-.047Z" transform="translate(-461.514 -107.606)" fill="#e8b499"/>
                <path id="Path_1639" data-name="Path 1639" d="M461.514,116.424s8.141,9.632,23.371,9.632a32.324,32.324,0,0,0,23.491-9.585" transform="translate(-461.514 -106.558)" fill="none" stroke="#fff" stroke-miterlimit="10" stroke-width="1.938"/>
              </g>
            </g>
            <line id="Line_39" data-name="Line 39" x1="0.222" y1="68.026" transform="translate(78.799 46.412)" fill="none" stroke="#000" stroke-linecap="round" stroke-linejoin="round" stroke-width="0.953"/>
            <line id="Line_40" data-name="Line 40" y1="11.414" transform="translate(0 46.075)" fill="none" stroke="#000" stroke-linecap="round" stroke-linejoin="round" stroke-width="0.953"/>
          </g>
        </g>
      </g>
      <g id="Group_135" data-name="Group 135" transform="translate(0 27.665)">
        <g id="Group_106" data-name="Group 106" transform="translate(52.324)">
          <path id="Path_1640" data-name="Path 1640" d="M370.978,74.959s10.159-4.527,13.76,4.034c3.467,8.239-10.3,16.093-10.3,16.093Z" transform="translate(-338.194 -66.773)" fill="#1e0b02"/>
          <g id="Group_101" data-name="Group 101" transform="translate(0 35.651)">
            <path id="Path_1641" data-name="Path 1641" d="M355.462,106.078a6.893,6.893,0,1,1-7.086-6.7A6.894,6.894,0,0,1,355.462,106.078Z" transform="translate(-341.677 -99.379)" fill="#c67d69"/>
            <path id="Path_1642" data-name="Path 1642" d="M344.341,104.692s2.741-1.335,5.353,3.427" transform="translate(-341.361 -98.768)" fill="none" stroke="#a8523f" stroke-linecap="round" stroke-linejoin="round" stroke-width="0.748"/>
          </g>
          <g id="Group_102" data-name="Group 102" transform="translate(38.953 35.651)">
            <ellipse id="Ellipse_9" data-name="Ellipse 9" cx="6.894" cy="6.894" rx="6.894" ry="6.894" fill="#c67d69"/>
            <path id="Path_1643" data-name="Path 1643" d="M386.683,104.592s-2.778-1.258-5.255,3.577" transform="translate(-375.905 -98.777)" fill="none" stroke="#a8523f" stroke-linecap="round" stroke-linejoin="round" stroke-width="0.748"/>
          </g>
          <g id="Group_103" data-name="Group 103" transform="translate(14.926 58.066)">
            <path id="Path_1644" data-name="Path 1644" d="M375.305,119.776a23.291,23.291,0,0,1-7.428,3.419,11.316,11.316,0,0,1-7.029-1.4l-4.137-2.379-1.694,22.69.459.377a16.426,16.426,0,0,0,20.734.141l.887-.713Z" transform="translate(-355.018 -119.413)" fill="#c67d69"/>
          </g>
          <path id="Path_1645" data-name="Path 1645" d="M355.018,117.28s3.862,12.643,12.752,12.5c7.306-.115,8.484-12.5,8.484-12.5Z" transform="translate(-340.092 -61.6)" fill="#1e0b02"/>
          <path id="Path_1646" data-name="Path 1646" d="M385.893,97a85.866,85.866,0,0,1-2.127,19.3c-1.064,4.678-4.109,7.959-8.422,10.609l-.785.482a15.012,15.012,0,0,1-15.136.243h0c-4.7-2.68-8-6.227-9.036-11.235a125.52,125.52,0,0,1-2.135-19.209s-2.646-21.077,17.655-20.8S385.893,97,385.893,97Z" transform="translate(-340.909 -66.461)" fill="#c67d69"/>
          <g id="Group_104" data-name="Group 104" transform="translate(11.284 26.435)">
            <ellipse id="Ellipse_10" data-name="Ellipse 10" cx="1.643" cy="1.643" rx="1.643" ry="1.643" transform="translate(4.478 8.648)" fill="#1e0b02"/>
            <ellipse id="Ellipse_11" data-name="Ellipse 11" cx="1.643" cy="1.643" rx="1.643" ry="1.643" transform="translate(20.597 8.648)" fill="#1e0b02"/>
            <path id="Path_1647" data-name="Path 1647" d="M363.105,102.484v4.531h2.927" transform="translate(-350.415 -89.795)" fill="none" stroke="#a8523f" stroke-linecap="round" stroke-linejoin="round" stroke-width="0.748"/>
            <path id="Path_1648" data-name="Path 1648" d="M351.763,94.49l10.734-.967s-.961-2.782-5.3-2.331C352.755,91.653,351.763,94.49,351.763,94.49Z" transform="translate(-351.763 -91.143)"/>
            <path id="Path_1649" data-name="Path 1649" d="M377.633,94.49,366.9,93.523s.961-2.782,5.3-2.331C376.64,91.653,377.633,94.49,377.633,94.49Z" transform="translate(-349.964 -91.143)"/>
            <path id="Path_1650" data-name="Path 1650" d="M359.822,109.888h10.589s-.5,3.244-5.452,3.244S359.822,109.888,359.822,109.888Z" transform="translate(-350.805 -88.914)" fill="#fff"/>
          </g>
          <g id="Group_105" data-name="Group 105" transform="translate(4.533 12.493)">
            <path id="Path_1651" data-name="Path 1651" d="M349.229,106.72s3.005-22.8,1.536-26.552C350.765,80.168,340.541,88.626,349.229,106.72Z" transform="translate(-345.729 -78.505)" fill="#1e0b02"/>
            <path id="Path_1652" data-name="Path 1652" d="M381.474,106.714s-3.382-21.769-2.445-28.032C379.029,78.682,388.9,87.427,381.474,106.714Z" transform="translate(-341.79 -78.682)" fill="#1e0b02"/>
          </g>
          <path id="Path_1653" data-name="Path 1653" d="M381.727,77.618l-9.36-1.416-.825-1.619-4.94.747-4.941-.747-.824,1.619-9.36,1.416-1.248,5.007.308,5.773s1.481-6.549,6.639-5.244c1.216.308,2.672.817,4.374,1.16a23.007,23.007,0,0,0,4.536.528c.169,0,.344,0,.516,0s.347,0,.516,0a22.988,22.988,0,0,0,4.535-.528,33.985,33.985,0,0,0,4.375-1.16c4.782-1.664,6.542,4.947,6.542,4.947l.405-5.476Z" transform="translate(-340.661 -66.676)" fill="#1e0b02"/>
          <path id="Path_1654" data-name="Path 1654" d="M382.467,84.155a12.451,12.451,0,0,1-13.888,1.258s-19.842,12.224-25.443-1.083c-4.669-11.094,14.713-26.148,34.711-9.184Z" transform="translate(-341.588 -67.516)" fill="#1e0b02"/>
        </g>
        <g id="Group_119" data-name="Group 119" transform="translate(0 172.109)">
          <g id="Group_111" data-name="Group 111" transform="translate(98.583 185.917)">
            <path id="Path_1655" data-name="Path 1655" d="M386.4,394.372l3.211,39.915,17.644.554L407.3,387.5Z" transform="translate(-382.619 -387.503)" fill="#c67d69"/>
            <g id="Group_110" data-name="Group 110" transform="translate(0 38.515)">
              <g id="Group_109" data-name="Group 109">
                <g id="Group_108" data-name="Group 108" transform="translate(0.04)">
                  <path id="Path_1656" data-name="Path 1656" d="M389.673,425.969S401.9,433.1,408,421.926l44.748,23.75-69.7-.426Z" transform="translate(-383.057 -421.926)" fill="#101010"/>
                  <g id="Group_107" data-name="Group 107" clip-path="url(#clip-path)">
                    <path id="Path_1657" data-name="Path 1657" d="M439.918,430.5s-17.2,2.572-15.88,23.967l29.776-8.161Z" transform="translate(-378.194 -420.906)" fill="#fff"/>
                  </g>
                </g>
                <rect id="Rectangle_45" data-name="Rectangle 45" width="6.094" height="69.697" transform="translate(0 29.418) rotate(-89.65)" fill="#fff"/>
                <path id="Path_1659" data-name="Path 1659" d="M410.266,433.131a1.164,1.164,0,0,0,.483-.368,24.1,24.1,0,0,1,5.456-5.318,1.081,1.081,0,0,0,.322-1.543,1.217,1.217,0,0,0-1.618-.31,25.935,25.935,0,0,0-6.054,5.863,1.081,1.081,0,0,0,.26,1.555A1.223,1.223,0,0,0,410.266,433.131Z" transform="translate(-379.977 -421.512)" fill="#fff"/>
                <path id="Path_1660" data-name="Path 1660" d="M415.357,435.679a1.164,1.164,0,0,0,.483-.368,24.162,24.162,0,0,1,5.455-5.319,1.08,1.08,0,0,0,.323-1.543,1.214,1.214,0,0,0-1.619-.309A25.908,25.908,0,0,0,413.946,434a1.08,1.08,0,0,0,.26,1.554A1.22,1.22,0,0,0,415.357,435.679Z" transform="translate(-379.372 -421.209)" fill="#fff"/>
                <path id="Path_1661" data-name="Path 1661" d="M420.446,438.223a1.158,1.158,0,0,0,.483-.368,24.164,24.164,0,0,1,5.456-5.317,1.079,1.079,0,0,0,.322-1.543,1.212,1.212,0,0,0-1.618-.31,25.946,25.946,0,0,0-6.053,5.862,1.079,1.079,0,0,0,.26,1.555A1.221,1.221,0,0,0,420.446,438.223Z" transform="translate(-378.767 -420.906)" fill="#fff"/>
              </g>
            </g>
          </g>
          <g id="Group_116" data-name="Group 116" transform="translate(0 185.917)">
            <path id="Path_1662" data-name="Path 1662" d="M352.524,394.372l1.07,39.915-17.644.554L331.627,387.5Z" transform="translate(-290.549 -387.503)" fill="#c67d69"/>
            <g id="Group_115" data-name="Group 115" transform="translate(0 38.515)">
              <g id="Group_114" data-name="Group 114">
                <g id="Group_113" data-name="Group 113">
                  <path id="Path_1663" data-name="Path 1663" d="M357.993,425.969s-12.229,7.131-18.333-4.043l-44.747,23.75,69.695-.426Z" transform="translate(-294.913 -421.926)" fill="#101010"/>
                  <g id="Group_112" data-name="Group 112" clip-path="url(#clip-path-2)">
                    <path id="Path_1664" data-name="Path 1664" d="M303.513,430.5s17.2,2.572,15.88,23.967l-29.776-8.161Z" transform="translate(-295.542 -420.906)" fill="#fff"/>
                  </g>
                </g>
                <rect id="Rectangle_46" data-name="Rectangle 46" width="69.697" height="6.094" transform="translate(0.002 23.75) rotate(-0.35)" fill="#fff"/>
                <path id="Path_1666" data-name="Path 1666" d="M330.854,433.131a1.167,1.167,0,0,1-.484-.368,24.138,24.138,0,0,0-5.455-5.318,1.08,1.08,0,0,1-.322-1.543,1.217,1.217,0,0,1,1.618-.31,25.942,25.942,0,0,1,6.053,5.863,1.08,1.08,0,0,1-.26,1.555A1.221,1.221,0,0,1,330.854,433.131Z" transform="translate(-291.408 -421.512)" fill="#fff"/>
                <path id="Path_1667" data-name="Path 1667" d="M325.764,435.679a1.167,1.167,0,0,1-.484-.368,24.161,24.161,0,0,0-5.454-5.319,1.08,1.08,0,0,1-.322-1.543,1.213,1.213,0,0,1,1.618-.309A25.885,25.885,0,0,1,327.174,434a1.078,1.078,0,0,1-.26,1.554A1.218,1.218,0,0,1,325.764,435.679Z" transform="translate(-292.013 -421.209)" fill="#fff"/>
                <path id="Path_1668" data-name="Path 1668" d="M320.674,438.223a1.164,1.164,0,0,1-.483-.368,24.163,24.163,0,0,0-5.456-5.317,1.08,1.08,0,0,1-.322-1.543,1.213,1.213,0,0,1,1.618-.31,25.937,25.937,0,0,1,6.054,5.862,1.08,1.08,0,0,1-.26,1.555A1.223,1.223,0,0,1,320.674,438.223Z" transform="translate(-292.618 -420.906)" fill="#fff"/>
              </g>
            </g>
          </g>
          <g id="Group_118" data-name="Group 118" transform="translate(30.843)">
            <g id="Group_117" data-name="Group 117" transform="translate(1.911)">
              <path id="Path_1669" data-name="Path 1669" d="M372.735,260.223,388.4,433.6h31.145L407.8,226.336l-38.635-3.415L337.2,221.339l-12.92,109.783a16.772,16.772,0,0,0,17.031,18.508h0a16.771,16.771,0,0,0,16.128-13.641Z" transform="translate(-324.186 -221.339)" fill="#7b97fb"/>
            </g>
            <line id="Line_41" data-name="Line 41" x2="20.059" y2="2.551" transform="translate(36.537 37.19)" fill="none" stroke="#000" stroke-linecap="round" stroke-linejoin="round" stroke-width="0.953"/>
            <path id="Path_1670" data-name="Path 1670" d="M419.588,415.734H378.531l-1.98-18.6h41.057Z" transform="translate(-316.051 -200.441)" fill="#a1b9fc"/>
            <path id="Path_1671" data-name="Path 1671" d="M357.428,324.324l1.912,94.936H326.475l-2.206-99.8Z" transform="translate(-322.266 -209.675)" fill="#7b97fb"/>
            <rect id="Rectangle_47" data-name="Rectangle 47" width="41.057" height="18.603" transform="translate(0 196.689)" fill="#a1b9fc"/>
          </g>
        </g>
        <g id="Group_134" data-name="Group 134" transform="translate(12.62 16.58)">
          <g id="Group_121" data-name="Group 121" transform="translate(23.83 63.981)">
            <g id="Group_120" data-name="Group 120">
              <path id="Path_1672" data-name="Path 1672" d="M403.645,148.7l-23.275-9.179-22.08.195-29.111,13.62c-2.281,1.367-1.852,4.131-1.024,6.657l6.584,77.808,73.011-1,4.757-79.055C413.132,155.138,406.051,149.864,403.645,148.7Z" transform="translate(-327.491 -139.518)" fill="#e180a0"/>
            </g>
            <path id="Path_1673" data-name="Path 1673" d="M355.709,139.713l-6.5,2.989s-.07,10.9,17.6,10.338c18.124-.58,18.082-10.85,18.082-10.85l-7.1-2.672Z" transform="translate(-324.909 -139.518)" fill="#c67d69"/>
          </g>
          <g id="Group_126" data-name="Group 126" transform="translate(82.408)">
            <g id="Group_124" data-name="Group 124" transform="translate(6.897)">
              <path id="Path_1674" data-name="Path 1674" d="M435.093,195.2,386.01,171.76l24.336-14.482,21.8,13.5Z" transform="translate(-386.01 -73.426)" fill="#c67d69"/>
              <g id="Group_123" data-name="Group 123" transform="translate(28.706)">
                <path id="Path_1675" data-name="Path 1675" d="M421.738,123.25l9.5-3.416,16.82,66.285a11.632,11.632,0,0,1-9.939,15.253h0a11.632,11.632,0,0,1-12.616-9.958Z" transform="translate(-410.468 -77.877)" fill="#c67d69"/>
                <g id="Group_122" data-name="Group 122">
                  <path id="Path_1676" data-name="Path 1676" d="M422.935,127.708l-4.529-5a22.471,22.471,0,0,1-5.013-9.133l-1.643-5.977a2.382,2.382,0,0,1,2.056-3h0a3.048,3.048,0,0,1,3.005,1.615l3.06,5.825.853-25.75a1.845,1.845,0,0,1,2.1-1.8l.738.1a1.844,1.844,0,0,1,1.584,1.715l-.027,15.264,2.456-17.529a1.843,1.843,0,0,1,2.2-1.665l.538.109a1.844,1.844,0,0,1,1.472,1.949l-2.015,18.314,4.307-14.335a1.845,1.845,0,0,1,2.638-1.142l.209.111a1.845,1.845,0,0,1,.954,1.968l-2.868,15.445,2.938-9.1a1.845,1.845,0,0,1,3.028-.768h0a1.845,1.845,0,0,1,.527,1.736l-7.627,34.138Z" transform="translate(-411.665 -82.335)" fill="#c67d69"/>
                  <path id="Path_1677" data-name="Path 1677" d="M419,108.881a12.119,12.119,0,0,1,7.571,6.987" transform="translate(-410.793 -79.179)" fill="none" stroke="#a8523f" stroke-linecap="round" stroke-linejoin="round" stroke-width="0.748"/>
                </g>
                <line id="Line_42" data-name="Line 42" x2="1.01" y2="12.625" transform="translate(13.935 96.217)" fill="none" stroke="#a8523f" stroke-linecap="round" stroke-linejoin="round" stroke-width="0.748"/>
              </g>
            </g>
            <g id="Group_125" data-name="Group 125" transform="translate(0 72.057)">
              <path id="Path_1678" data-name="Path 1678" d="M394.173,146.736c18.21,5.525,30.808,20.406,30.808,20.406l-13.7,27.181-31.439-14.588Z" transform="translate(-379.845 -146.736)" fill="#e180a0"/>
              <line id="Line_43" data-name="Line 43" x1="8.933" y1="4.145" transform="translate(15.45 40.167)" fill="none" stroke="#000" stroke-linecap="round" stroke-linejoin="round" stroke-width="0.953"/>
            </g>
          </g>
          <g id="Group_133" data-name="Group 133" transform="translate(0 70.632)">
            <g id="Group_132" data-name="Group 132" transform="translate(0 7.163)">
              <g id="Group_130" data-name="Group 130" transform="translate(0 25.212)">
                <g id="Group_127" data-name="Group 127">
                  <path id="Path_1679" data-name="Path 1679" d="M317.4,174.4l-11.072,39.879c-1.258,6.342,6.239,13.533,12.323,15.146h0c6.008,1.593,4.737-3.116,6.312-9.288l15.089-37.726Z" transform="translate(-306.192 -174.398)" fill="#c67d69"/>
                </g>
                <g id="Group_129" data-name="Group 129" transform="translate(1.211 33.767)">
                  <g id="Group_128" data-name="Group 128">
                    <path id="Path_1680" data-name="Path 1680" d="M307.275,215.31c1.963,8.142,27.691,26.113,27.691,26.113l14.749.129-26.762-36.976Z" transform="translate(-307.275 -204.577)" fill="#c67d69"/>
                  </g>
                  <path id="Path_1681" data-name="Path 1681" d="M351.894,242.676a13.084,13.084,0,0,0,7.456,1.137,2.217,2.217,0,0,0,.554-4.139c-4.819-2.478-14.963-8.273-18.962-9.719l-6.962-1.94-6.558,6.517,5.148,4.105s1.239,6.517,3.754,8.734C336.325,247.372,347.218,249.066,351.894,242.676Z" transform="translate(-304.88 -201.791)" fill="#c67d69"/>
                </g>
                <line id="Line_44" data-name="Line 44" x1="4.298" y1="5.939" transform="translate(16.889 33.767)" fill="none" stroke="#a8523f" stroke-linecap="round" stroke-linejoin="round" stroke-width="0.748"/>
              </g>
              <g id="Group_131" data-name="Group 131" transform="translate(3.382)">
                <path id="Path_1682" data-name="Path 1682" d="M331.352,151.865S313,158,309.215,190.587L345.536,201.4l10.107-31.513Z" transform="translate(-309.215 -151.865)" fill="#e180a0"/>
                <line id="Line_45" data-name="Line 45" x1="1.633" y1="18.107" transform="translate(23.214 28.714)" fill="none" stroke="#000" stroke-linecap="round" stroke-linejoin="round" stroke-width="0.953"/>
              </g>
            </g>
            <path id="Path_1683" data-name="Path 1683" d="M343.848,146.068s-3.7,1.98-.8,7.731h0a7.145,7.145,0,0,1-2.515,9.233l-6.4,4.115a7.13,7.13,0,0,1-10.257-2.8c-1.258-2.569-2.054-5.5-1.1-8.006C325.075,150.293,338.585,143.354,343.848,146.068Z" transform="translate(-304.271 -145.463)" fill="#e8b499"/>
          </g>
        </g>
      </g>
    </g>
    <g id="Group_166" data-name="Group 166" transform="translate(554.309 50.939)">
      <g id="Group_151" data-name="Group 151" transform="translate(22.044 148.835)">
        <g id="Group_143" data-name="Group 143" transform="translate(59.332)">
          <g id="Group_141" data-name="Group 141" transform="translate(8.174 201.132)">
            <path id="Path_1684" data-name="Path 1684" d="M609.856,409.765v27.688l12.877.431L623.6,401.1Z" transform="translate(-603.589 -401.102)" fill="#cf7c6c"/>
            <g id="Group_140" data-name="Group 140" transform="translate(0 29.926)">
              <g id="Group_139" data-name="Group 139" transform="translate(0)">
                <g id="Group_138" data-name="Group 138" transform="translate(0.031)">
                  <path id="Path_1685" data-name="Path 1685" d="M609.924,430.879s9,5.651,13.742-3.031L658.435,446.3l-54.153-.331Z" transform="translate(-604.283 -427.848)" fill="#101010"/>
                  <g id="Group_137" data-name="Group 137" clip-path="url(#clip-path-3)">
                    <path id="Path_1686" data-name="Path 1686" d="M648.463,434.512s-13.367,2-12.339,18.623l23.136-6.341Z" transform="translate(-600.505 -427.056)" fill="#fff"/>
                  </g>
                </g>
                <rect id="Rectangle_48" data-name="Rectangle 48" width="4.735" height="54.154" transform="translate(0 22.858) rotate(-89.649)" fill="#fff"/>
                <path id="Path_1688" data-name="Path 1688" d="M625.424,436.554a.89.89,0,0,0,.376-.285,18.763,18.763,0,0,1,4.238-4.132.839.839,0,0,0,.25-1.2.946.946,0,0,0-1.256-.241,20.091,20.091,0,0,0-4.7,4.556.84.84,0,0,0,.2,1.208A.948.948,0,0,0,625.424,436.554Z" transform="translate(-601.89 -427.526)" fill="#fff"/>
                <path id="Path_1689" data-name="Path 1689" d="M629.379,438.533a.908.908,0,0,0,.376-.285,18.791,18.791,0,0,1,4.238-4.133.839.839,0,0,0,.251-1.2.943.943,0,0,0-1.258-.241,20.132,20.132,0,0,0-4.7,4.555.839.839,0,0,0,.2,1.208A.948.948,0,0,0,629.379,438.533Z" transform="translate(-601.419 -427.291)" fill="#fff"/>
                <path id="Path_1690" data-name="Path 1690" d="M633.334,440.511a.9.9,0,0,0,.375-.286,18.791,18.791,0,0,1,4.239-4.131.84.84,0,0,0,.251-1.2.944.944,0,0,0-1.258-.241,20.178,20.178,0,0,0-4.7,4.555.84.84,0,0,0,.2,1.208A.954.954,0,0,0,633.334,440.511Z" transform="translate(-600.949 -427.056)" fill="#fff"/>
              </g>
            </g>
          </g>
          <g id="Group_142" data-name="Group 142">
            <path id="Path_1691" data-name="Path 1691" d="M618.233,221.339s23,27.258,15.59,100.116L627.9,442.992H609.216L596.95,221.339Z" transform="translate(-596.95 -221.339)" fill="#da4412"/>
          </g>
        </g>
        <g id="Group_149" data-name="Group 149">
          <g id="Group_148" data-name="Group 148" transform="translate(0 201.132)">
            <path id="Path_1692" data-name="Path 1692" d="M588.208,409.765v27.688l-12.877.431-.865-36.782Z" transform="translate(-540.291 -401.102)" fill="#cf7c6c"/>
            <g id="Group_147" data-name="Group 147" transform="translate(0 29.926)">
              <g id="Group_146" data-name="Group 146">
                <g id="Group_145" data-name="Group 145">
                  <path id="Path_1693" data-name="Path 1693" d="M592.433,430.879s-9,5.651-13.743-3.031L543.922,446.3l54.152-.331Z" transform="translate(-543.922 -427.848)" fill="#101010"/>
                  <g id="Group_144" data-name="Group 144" clip-path="url(#clip-path-4)">
                    <path id="Path_1694" data-name="Path 1694" d="M550.605,434.512s13.366,2,12.338,18.623l-23.135-6.341Z" transform="translate(-544.411 -427.056)" fill="#fff"/>
                  </g>
                </g>
                <rect id="Rectangle_49" data-name="Rectangle 49" width="54.154" height="4.735" transform="translate(0.002 18.454) rotate(-0.351)" fill="#fff"/>
                <path id="Path_1696" data-name="Path 1696" d="M571.847,436.554a.9.9,0,0,1-.375-.285,18.725,18.725,0,0,0-4.239-4.132.839.839,0,0,1-.25-1.2.946.946,0,0,1,1.257-.241,20.115,20.115,0,0,1,4.7,4.556.84.84,0,0,1-.2,1.208A.95.95,0,0,1,571.847,436.554Z" transform="translate(-541.199 -427.526)" fill="#fff"/>
                <path id="Path_1697" data-name="Path 1697" d="M567.893,438.533a.9.9,0,0,1-.376-.285,18.818,18.818,0,0,0-4.238-4.133.838.838,0,0,1-.251-1.2.941.941,0,0,1,1.256-.241,20.1,20.1,0,0,1,4.7,4.555.84.84,0,0,1-.2,1.208A.948.948,0,0,1,567.893,438.533Z" transform="translate(-541.669 -427.291)" fill="#fff"/>
                <path id="Path_1698" data-name="Path 1698" d="M563.938,440.511a.908.908,0,0,1-.376-.286,18.774,18.774,0,0,0-4.238-4.131.84.84,0,0,1-.251-1.2.944.944,0,0,1,1.258-.241,20.18,20.18,0,0,1,4.7,4.555.839.839,0,0,1-.2,1.208A.951.951,0,0,1,563.938,440.511Z" transform="translate(-542.139 -427.056)" fill="#fff"/>
              </g>
            </g>
          </g>
          <path id="Path_1699" data-name="Path 1699" d="M581.292,221.339s-23,27.258-15.591,100.116l5.921,121.537h20.734l10.22-221.653Z" transform="translate(-541.508 -221.339)" fill="#da4412"/>
        </g>
        <g id="Group_150" data-name="Group 150" transform="translate(41.434 14.886)">
          <rect id="Rectangle_50" data-name="Rectangle 50" width="35.933" height="35.933" fill="#da4412"/>
          <line id="Line_46" data-name="Line 46" x1="16.577" y1="1.023" transform="translate(6.641 34.909)" fill="none" stroke="#000" stroke-linecap="round" stroke-linejoin="round" stroke-width="0.953"/>
        </g>
      </g>
      <g id="Group_158" data-name="Group 158" transform="translate(0 50.399)">
        <g id="Group_154" data-name="Group 154" transform="translate(106.13)">
          <g id="Group_153" data-name="Group 153" transform="translate(36.667)">
            <path id="Path_1700" data-name="Path 1700" d="M680.011,148.421l8.121,2.552L670.944,204.5a9.811,9.811,0,0,1-14.458,5.171h0a9.811,9.811,0,0,1-3.391-13.126Z" transform="translate(-651.846 -131.571)" fill="#de9a8c"/>
            <g id="Group_152" data-name="Group 152" transform="translate(27.969)">
              <path id="Path_1701" data-name="Path 1701" d="M677.372,148.429l.647-2.116a18.978,18.978,0,0,1,4.453-7.587l3.624-3.776a2.011,2.011,0,0,1,3.065.192h0a2.575,2.575,0,0,1,.13,2.878l-2.9,4.74,16.8-9.187a1.556,1.556,0,0,1,2.215.742l.245.58a1.558,1.558,0,0,1-.558,1.892l-11.078,6.585,13.771-5.8a1.557,1.557,0,0,1,2.161.878l.154.436a1.557,1.557,0,0,1-.775,1.911l-11.886,5.816,9.993-2.432a1.556,1.556,0,0,1,1.969,1.418l.01.2a1.555,1.555,0,0,1-1.014,1.543L698.2,150.6l5.632-.471a1.557,1.557,0,0,1,1.866,1.863h0a1.555,1.555,0,0,1-1.032,1.133l-25.814,7.9-1.591-5.909A12.108,12.108,0,0,1,677.372,148.429Z" transform="translate(-676.843 -133.361)" fill="#de9a8c"/>
              <path id="Path_1702" data-name="Path 1702" d="M685.567,141.761a10.234,10.234,0,0,1-1.791,8.512" transform="translate(-676.018 -132.363)" fill="none" stroke="#c47268" stroke-linecap="round" stroke-linejoin="round" stroke-width="0.752"/>
            </g>
          </g>
          <path id="Path_1703" data-name="Path 1703" d="M625.026,150.9s13.922,3.53,35.058,35.994l9.817-28.047,22.437,10.05-15.178,40.733a15.951,15.951,0,0,1-25.8,6.148c-6.667-6.222-28-29.817-32.285-37.8Z" transform="translate(-619.074 -131.277)" fill="#262722"/>
        </g>
        <g id="Group_156" data-name="Group 156" transform="translate(0 24.326)">
          <g id="Group_155" data-name="Group 155" transform="translate(25.329 58.739)">
            <path id="Path_1704" data-name="Path 1704" d="M564.674,217.067s10.639,3,4.986,14.517c-5.1,10.379-13.935,12.55-21.278,10.8a2.04,2.04,0,0,1-1.322-2.867h0a2.043,2.043,0,0,1,1.892-1.171c2.656.056,7.392-.378,8.709-3.946,1.712-4.642-.715-9.74,1.977-14.53Z" transform="translate(-546.858 -206.476)" fill="#de9a8c"/>
            <path id="Path_1705" data-name="Path 1705" d="M564.462,218.192l-6.4-10.591-9.421,5.3,11.5,12.541Z" transform="translate(-546.646 -207.601)" fill="#de9a8c"/>
          </g>
          <path id="Path_1706" data-name="Path 1706" d="M567.281,155.1s-18.058,8.91-40.446,31.712a8.971,8.971,0,0,0-2.25,8.823c1.717,5.707,7.544,15.232,25.777,27.675l15.84-8.063-13.845-18.437,26.474-10.972Z" transform="translate(-524.22 -155.103)" fill="#262722"/>
        </g>
        <g id="Group_157" data-name="Group 157" transform="translate(37.557 20.475)">
          <path id="Path_1707" data-name="Path 1707" d="M633.211,247.113l-62.426.731,7.192-96.183h48.189Z" transform="translate(-556.242 -151.661)" fill="#fff"/>
          <path id="Path_1708" data-name="Path 1708" d="M571.605,151.661l-8.314,3.851s12.3,44.749-5.5,113.7l15.387,3.561s16.642-49.938,15.131-117.266Z" transform="translate(-557.787 -151.661)" fill="#262722"/>
          <path id="Path_1709" data-name="Path 1709" d="M627.75,151.8l3.873,1.795a6.076,6.076,0,0,1,3.415,6.684c-2.541,13.092-7.922,53.112,6.53,109.077l-15.387,3.561s-16.642-49.938-15.131-117.266Z" transform="translate(-551.467 -151.645)" fill="#262722"/>
        </g>
      </g>
      <g id="Group_165" data-name="Group 165" transform="translate(51.375)">
        <g id="Group_164" data-name="Group 164">
          <g id="Group_161" data-name="Group 161" transform="translate(12.686 4.367)">
            <g id="Group_159" data-name="Group 159" transform="translate(9.483 48.836)">
              <path id="Path_1710" data-name="Path 1710" d="M607.1,136.249s-3.287,2.766-6.284,3.446-5.913-1.4-5.95-1.423l-3.5-2.4-1.414,17.341.388.383a12.211,12.211,0,0,0,17.548.159l.751-.719Z" transform="translate(-589.951 -135.867)" fill="#de9a8c"/>
            </g>
            <path id="Path_1711" data-name="Path 1711" d="M619.5,114.286a79.577,79.577,0,0,1-2.151,18.646c-1.075,4.519-4.149,7.689-8.5,10.251l-.793.465a15.745,15.745,0,0,1-15.279.238h0c-4.745-2.588-8.075-6.013-9.119-10.852a116.217,116.217,0,0,1-2.15-18.557s-1.587-20.362,18.907-20.1S619.5,114.286,619.5,114.286Z" transform="translate(-581.476 -91.963)" fill="#de9a8c"/>
            <g id="Group_160" data-name="Group 160" transform="translate(4.013 18.002)">
              <ellipse id="Ellipse_12" data-name="Ellipse 12" cx="1.658" cy="1.658" rx="1.658" ry="1.658" transform="translate(4.52 8.73)" fill="#1e0b02"/>
              <ellipse id="Ellipse_13" data-name="Ellipse 13" cx="1.658" cy="1.658" rx="1.658" ry="1.658" transform="translate(20.791 8.73)" fill="#1e0b02"/>
              <path id="Path_1712" data-name="Path 1712" d="M596.511,121.181v2.981h2.011" transform="translate(-583.701 -106.779)" fill="none" stroke="#c47268" stroke-linecap="round" stroke-linejoin="round" stroke-width="0.695"/>
              <path id="Path_1713" data-name="Path 1713" d="M585.062,111.689l10.835-.977s-.97-2.807-5.35-2.353C586.065,108.826,585.062,111.689,585.062,111.689Z" transform="translate(-585.062 -108.31)"/>
              <path id="Path_1714" data-name="Path 1714" d="M611.174,111.689l-10.835-.977s.971-2.807,5.352-2.353C610.173,108.826,611.174,111.689,611.174,111.689Z" transform="translate(-583.246 -108.31)"/>
              <path id="Path_1715" data-name="Path 1715" d="M592.066,126a9.035,9.035,0,0,0,7.173,1.54" transform="translate(-584.229 -106.206)" fill="none" stroke="#000" stroke-linecap="round" stroke-linejoin="round" stroke-width="0.695"/>
            </g>
            <path id="Path_1716" data-name="Path 1716" d="M582,107.231s13.345-10.334,37.461,0c0,0-2.125-15.011-18.731-15.011S582,107.231,582,107.231Z" transform="translate(-581.414 -92.22)" fill="#fff"/>
          </g>
          <g id="Group_163" data-name="Group 163">
            <path id="Path_1717" data-name="Path 1717" d="M627.44,113.446A28.191,28.191,0,0,0,609.924,90a23.232,23.232,0,0,0-17.264-.03,28.2,28.2,0,0,0-17.739,23.481c-1.923,18.106,12.341,36.478,12.341,36.478l13.815-3.391,14.2,3.391S629.363,131.552,627.44,113.446Zm-22.647,30.37a8.81,8.81,0,0,1-7.847-.038c-9.364-4.751-14.182-16.14-13.6-28.642.326-7.027,4.531-11.947,8.776-15.152a15.017,15.017,0,0,1,18.12,0c4.245,3.2,8.451,8.125,8.776,15.152C619.6,127.695,614.344,139.118,604.793,143.816Z" transform="translate(-569.59 -88.317)" fill="#7b97fb"/>
            <path id="Path_1718" data-name="Path 1718" d="M589.279,140.29l-19.142,12.723s24.536,20.442,64.441,1.071L614.559,140.29Z" transform="translate(-570.137 -82.139)" fill="#7b97fb"/>
            <g id="Group_162" data-name="Group 162" transform="translate(16.699 55.141)">
              <path id="Path_1719" data-name="Path 1719" d="M585.932,141.545a17.35,17.35,0,0,0,13.84,4.408" transform="translate(-584.959 -137.13)" fill="none" stroke="#6081ea" stroke-linecap="round" stroke-linejoin="round" stroke-width="0.674"/>
              <path id="Path_1720" data-name="Path 1720" d="M585.062,151.521a49.544,49.544,0,0,0,39.407-3.26" transform="translate(-585.062 -136.332)" fill="none" stroke="#6081ea" stroke-linecap="round" stroke-linejoin="round" stroke-width="0.674"/>
              <path id="Path_1721" data-name="Path 1721" d="M591.126,141.3a16.187,16.187,0,0,0,13.246-3.7" transform="translate(-584.341 -137.599)" fill="none" stroke="#6081ea" stroke-linecap="round" stroke-linejoin="round" stroke-width="0.674"/>
              <path id="Path_1722" data-name="Path 1722" d="M611.487,141.545s-1.063,2.255-4.834,2.755" transform="translate(-582.495 -137.13)" fill="none" stroke="#6081ea" stroke-linecap="round" stroke-linejoin="round" stroke-width="0.674"/>
            </g>
          </g>
        </g>
      </g>
    </g>
    <line id="Line_47" data-name="Line 47" x2="751.284" transform="translate(0 454.431)" fill="none" stroke="#d6b997" stroke-linecap="round" stroke-linejoin="round" stroke-width="0.992"/>
  </g>
</svg>
