<svg id="hold-world" xmlns="http://www.w3.org/2000/svg" xmlns:xlink="http://www.w3.org/1999/xlink" width="97.741" height="97.741" viewBox="0 0 97.741 97.741">
  <defs>
    <linearGradient id="linear-gradient" x1="0.096" y1="0.336" x2="1.023" y2="0.768" gradientUnits="objectBoundingBox">
      <stop offset="0" stop-color="#fff" stop-opacity="0.2"/>
      <stop offset="1" stop-color="#fff" stop-opacity="0"/>
    </linearGradient>
  </defs>
  <circle id="Ellipse_14" data-name="Ellipse 14" cx="48.87" cy="48.87" r="48.87" transform="translate(0)" fill="#0097cf"/>
  <path id="Path_1771" data-name="Path 1771" d="M27.965,51.54a5.2,5.2,0,0,1-2.5-.626,12.519,12.519,0,0,1-1.434-2.261c-1.772-3.225-4.731-8.608-12.771-8.608a3.258,3.258,0,0,0-2.431,1.088l-.652.736C8.085,43,8,44.132,8,45.285A48.789,48.789,0,0,0,30.63,86.462l-.254-6.59V67.1c0-1.421.58-2.313,1.6-3.779a10.368,10.368,0,0,0,2.372-6.138c0-4.92-4.633-5.441-6.379-5.636ZM76.705.65l-.573.117c-4.183.254-14.27,1.2-17.593,4.535a3.258,3.258,0,0,0,.052,4.659,13.643,13.643,0,0,1-1.212.691c-2.378,1.205-5.6,3.193-6.132,6.483-.222,1.407-.013,3.558,2.261,5.832a3.258,3.258,0,0,0,2.3.958,22.01,22.01,0,0,0,7.617-1.707A20.455,20.455,0,0,1,70.632,20.6c4.913,0,9.546,3.043,9.546,5.4,0,1.134-1.14,1.642-7.858,1.642a7.16,7.16,0,0,1-4.483-1.355,12.24,12.24,0,0,0-7-2.111c-3.467,0-9.924.639-14.2,4.92-3.656,3.649-3.284,7.884-3.036,10.673.046.554.1,1.069.1,1.544,0,4.19,3.871,7.226,9.207,7.226,4.333,0,9.1.684,10.654,1.492a12.965,12.965,0,0,0,1.271,4.679,5.621,5.621,0,0,1,.684,2.476L65.237,58a7.526,7.526,0,0,0-1.707,5.128c0,4.555,4,9.227,4.8,10.113a3.258,3.258,0,0,0,3.225.977c1.271-.326,12.367-3.388,12.367-11.09a2.608,2.608,0,0,1,1.212-2.58,6.664,6.664,0,0,0,2.756-5.343c.072-1.173,2.509-4.861,5.1-7.741a3.258,3.258,0,0,0-.411-4.757,30.5,30.5,0,0,1-3.929-3.8,4.985,4.985,0,0,0,1.173.072c3.962-.228,9.025-5.9,11.559-9.09l1.31-1.453A48.961,48.961,0,0,0,76.7.65Z" transform="translate(-8 3.585)" fill="#9acf87"/>
  <path id="Path_1772" data-name="Path 1772" d="M53.836,1.629A49.946,49.946,0,0,1,99.123,30.56a48.835,48.835,0,0,0-90.573,0A49.952,49.952,0,0,1,53.836,1.629Z" transform="translate(-4.966)" fill="#fff" opacity="0.2"/>
  <path id="Path_1773" data-name="Path 1773" d="M53.836,39.241A49.946,49.946,0,0,1,8.55,10.31,48.833,48.833,0,0,0,53.836,40.87,48.84,48.84,0,0,0,99.123,10.31,49.952,49.952,0,0,1,53.836,39.241Z" transform="translate(-4.966 56.87)" fill="#010101" opacity="0.1"/>
  <path id="Path_1780" data-name="Path 1780" d="M157.808,97.741a48.87,48.87,0,1,0-48.87-48.87A48.87,48.87,0,0,0,157.808,97.741Z" transform="translate(-108.937)" fill="url(#linear-gradient)"/>
</svg>
