<svg id="hotel" xmlns="http://www.w3.org/2000/svg" width="79.322" height="108.165" viewBox="0 0 79.322 108.165">
  <path id="Path_1781" data-name="Path 1781" d="M18.605,15.422A3.605,3.605,0,0,1,15,11.816V4.605a3.605,3.605,0,1,1,7.211,0v7.211A3.606,3.606,0,0,1,18.605,15.422Z" transform="translate(21.055 -1)" fill="#d6b5b0"/>
  <path id="Path_1782" data-name="Path 1782" d="M18.4,1A3.606,3.606,0,0,0,15.08,3.38a3.5,3.5,0,0,1,5.192,3.173v7.211a3.137,3.137,0,0,1-.216,1.154A3.606,3.606,0,0,0,22,11.816V4.605A3.605,3.605,0,0,0,18.4,1Z" transform="translate(21.263 -1)" fill="#bf9e99"/>
  <rect id="Rectangle_52" data-name="Rectangle 52" width="21.525" height="21.525" rx="0.98" transform="translate(28.916 7.283)" fill="#c9c1f5"/>
  <path id="Path_1783" data-name="Path 1783" d="M30.9,3H16.475A3.605,3.605,0,0,0,13.05,5.92H27.472a3.606,3.606,0,0,1,3.605,3.605V23.948a3.1,3.1,0,0,1-.18.685h0A3.606,3.606,0,0,0,34.5,21.027V6.605A3.606,3.606,0,0,0,30.9,3Z" transform="translate(15.974 4.211)" fill="#afbdd6"/>
  <rect id="Rectangle_53" data-name="Rectangle 53" width="64.791" height="86.424" rx="0.98" transform="translate(7.283 21.705)" fill="#96d7ff"/>
  <path id="Path_1784" data-name="Path 1784" d="M31.547,23.2H17.125a3.606,3.606,0,0,0-3.606,3.606V48.438a3.605,3.605,0,0,0,1.731,2.884H33.567a3.605,3.605,0,0,0,1.586-2.884V26.806A3.606,3.606,0,0,0,31.547,23.2Z" transform="translate(17.199 56.842)" fill="#86c3ef"/>
  <rect id="Rectangle_54" data-name="Rectangle 54" width="35.947" height="21.525" rx="0.98" transform="translate(23.075 37.461)" fill="#86c3ef"/>
  <path id="Path_1785" data-name="Path 1785" d="M68.293,7H10.605A3.605,3.605,0,0,0,7,10.605v1.622H62.453a3.605,3.605,0,0,1,3.606,3.605v77.7h2.235A3.605,3.605,0,0,0,71.9,89.926V10.605A3.605,3.605,0,0,0,68.293,7Z" transform="translate(0.211 14.633)" fill="#86c3ef"/>
  <rect id="Rectangle_55" data-name="Rectangle 55" width="35.947" height="21.525" rx="0.98" transform="translate(21.705 36.127)" fill="#eef5fd"/>
  <path id="Path_1786" data-name="Path 1786" d="M43.509,11a2.848,2.848,0,0,1,.18.793V26.215a3.606,3.606,0,0,1-3.606,3.606H11.06a3.605,3.605,0,0,0,3.389,2.812H43.293A3.606,3.606,0,0,0,46.9,29.027V14.605A3.606,3.606,0,0,0,43.509,11Z" transform="translate(10.789 25.055)" fill="#d7e2f2"/>
  <rect id="Rectangle_56" data-name="Rectangle 56" width="21.525" height="28.736" rx="0.98" transform="translate(28.916 79.393)" fill="#798bc6"/>
  <path id="Path_1787" data-name="Path 1787" d="M31.027,23H16.605A3.606,3.606,0,0,0,13,26.137H27.422a3.606,3.606,0,0,1,3.606,3.605V51.375a1.3,1.3,0,0,1,0,.361h0a3.606,3.606,0,0,0,3.606-3.605V26.606A3.606,3.606,0,0,0,31.027,23Z" transform="translate(15.844 56.321)" fill="#667dba"/>
  <path id="Path_1788" data-name="Path 1788" d="M80.715,36.211H8.605a3.605,3.605,0,1,1,0-7.211h72.11a3.605,3.605,0,1,1,0,7.211Z" transform="translate(-5 71.954)" fill="#d6b5b0"/>
  <path id="Path_1789" data-name="Path 1789" d="M81.062,29a3.281,3.281,0,0,1,.469,1.659,3.605,3.605,0,0,1-3.605,3.606H5.743a1.911,1.911,0,0,1-.613,0,3.605,3.605,0,0,0,3.137,1.947h72.11A3.642,3.642,0,0,0,81.062,29Z" transform="translate(-4.661 71.954)" fill="#bf9e99"/>
</svg>
