<svg xmlns="http://www.w3.org/2000/svg" xmlns:xlink="http://www.w3.org/1999/xlink" width="71" height="71" viewBox="0 0 71 71">
  <defs>
    <linearGradient id="linear-gradient" x1="-0.064" y1="1.055" x2="1.114" y2="-0.105" gradientUnits="objectBoundingBox">
      <stop offset="0" stop-color="#fed576"/>
      <stop offset="0.26" stop-color="#f47133"/>
      <stop offset="0.61" stop-color="#bc3081"/>
      <stop offset="1" stop-color="#4c63d2"/>
    </linearGradient>
  </defs>
  <g id="Layer_2" data-name="Layer 2" opacity="0.7">
    <g id="Layer_1" data-name="Layer 1">
      <rect id="Rectangle_70" data-name="Rectangle 70" width="71" height="71" rx="12" fill="url(#linear-gradient)"/>
      <g id="_Group_" data-name="&lt;Group&gt;" transform="translate(11.68 11.698)">
        <path id="_Compound_Path_" data-name="&lt;Compound Path&gt;" d="M17.628,5h22.71c.5.252,1.262.252,1.766.5a12.061,12.061,0,0,1,9.589,8.327,20.186,20.186,0,0,1,.757,3.785V39.822a17.512,17.512,0,0,1-3.028,7.822,13.9,13.9,0,0,1-11.355,4.794H19.142A13.853,13.853,0,0,1,9.806,49.41,13.9,13.9,0,0,1,5.012,38.156V20.493a19.1,19.1,0,0,1,.252-3.785,12.364,12.364,0,0,1,9.589-10.85ZM9.806,28.971v9.841a8.63,8.63,0,0,0,9.336,9.336q9.841.379,19.682,0c5.8,0,9.084-3.533,9.336-9.336q.378-9.841,0-19.682a8.882,8.882,0,0,0-9.336-9.336q-9.841-.378-19.682,0A8.63,8.63,0,0,0,9.806,19.13Z" transform="translate(-4.992 -5)" fill="#fff"/>
        <path id="_Compound_Path_2" data-name="&lt;Compound Path&gt;" d="M9.64,22A12.389,12.389,0,0,1,22,9.64,12.616,12.616,0,0,1,34.368,22,12.389,12.389,0,0,1,22,34.368,12.616,12.616,0,0,1,9.64,22ZM22,14.182a7.7,7.7,0,1,0,7.57,7.57A7.57,7.57,0,0,0,22,14.182Z" transform="translate(2.087 2.068)" fill="#fff"/>
        <path id="_Path_" data-name="&lt;Path&gt;" d="M18.341,11.269a2.927,2.927,0,0,1,3.028-3.028A3.255,3.255,0,0,1,24.4,11.269a3.028,3.028,0,1,1-6.056,0Z" transform="translate(15.339 -0.066)" fill="#fff"/>
      </g>
    </g>
  </g>
</svg>
