<svg xmlns="http://www.w3.org/2000/svg" width="71" height="71" viewBox="0 0 71 71">
  <path id="linkdin_2_" data-name="linkdin (2)" d="M77.9,16H25.1A9.133,9.133,0,0,0,16,25.1V77.9A9.134,9.134,0,0,0,25.1,87H77.9A9.133,9.133,0,0,0,87,77.9V25.1A9.133,9.133,0,0,0,77.9,16ZM40.406,50.289V72.208H30.792V44.548h9.615ZM35.58,40.425a4.844,4.844,0,1,1,4.847-4.845A4.846,4.846,0,0,1,35.58,40.425Zm36.629,16.7V72.208H63.925V58.773c0-3.217-.348-7.355-4.758-7.355-4.476,0-5.153,3.5-5.153,7.123V72.208H46.027V44.548h7.692v3.7H53.8c1.147-2.071,3.958-3.7,8.143-3.7,7.051,0,9.448,3.334,10.1,8.551a32,32,0,0,1,.216,4.025Z" transform="translate(-16 -16)" fill="#477dee" fill-rule="evenodd" opacity="0.7"/>
</svg>
