<svg xmlns="http://www.w3.org/2000/svg" width="295.298" height="24.752" viewBox="0 0 295.298 24.752">
  <path id="Path_1" data-name="Path 1" d="M293.994,2.738c-1.445-.151-2.886-.116-4.338-.136s-2.879-.082-4.314-.217c-3.2-.3-6.4-.6-9.592-.878C269.59.973,263.423.553,257.249.328,251.588.121,245.921,0,240.255,0q-2.2,0-4.4.024C230.237.088,224.617.161,219,.316c-13.133.355-26.263.728-39.387,1.34-12.821.6-25.642,1.245-38.454,2.031-6.3.386-12.6.751-18.89,1.177-6.8.462-13.616.865-20.416,1.388Q80.8,7.871,59.747,9.5c-12.184.944-24.321,2.368-36.408,4.159C15.534,14.812,7.754,16.165,0,17.638c-.005,0,0,.011,0,.011q13.366.855,26.756.947c5.842.047,11.671-.066,17.509-.3q5.652-.23,11.294-.623c2.309-.162,4.613-.41,6.919-.627q9.259-.883,18.52-1.755c7.061-.661,14.118-1.38,21.185-1.976q10.93-.922,21.861-1.843c6.547-.553,13.1-1,19.654-1.494C150.1,9.49,156.5,9.122,162.895,8.71c6.447-.414,12.9-.726,19.353-1.067,6.566-.345,13.142-.536,19.711-.788,12-.458,24.007-.608,36.014-.687,6.678-.044,13.353-.282,20.027-.51q9.869-.336,19.729-.926c2.672-.16,5.356-.278,8.022-.547a36.282,36.282,0,0,0,3.848-.553c1.128-.238,2.232-.568,3.369-.777h0c.343-.046.683-.079,1.027-.107A.006.006,0,1,0,293.994,2.738Z" transform="matrix(1, -0.017, 0.017, 1, 0.509, 5.64)" fill="#477dee" stroke="#477dee" stroke-width="1"/>
</svg>
