<svg xmlns="http://www.w3.org/2000/svg" width="35.185" height="35.185" viewBox="0 0 35.185 35.185">
  <path id="search_1_" data-name="search (1)" d="M34.755,32.734l-6.047-5.912h0l-.142-.216a1.424,1.424,0,0,0-2,0h0a14.272,14.272,0,0,1-18.505.6,13.51,13.51,0,0,1-3-17.863A14.207,14.207,0,0,1,22.787,4.12a13.619,13.619,0,0,1,7.59,16.511,1.371,1.371,0,0,0,.32,1.357,1.445,1.445,0,0,0,1.362.408,1.412,1.412,0,0,0,1.043-.949h0a16.421,16.421,0,0,0-8.8-19.792A17.16,17.16,0,0,0,2.971,7.187,16.283,16.283,0,0,0,5.364,28.64a17.221,17.221,0,0,0,22.053.907l5.354,5.235a1.44,1.44,0,0,0,2,0,1.379,1.379,0,0,0,0-1.971h0Z" fill="#fff "/>
</svg>
