<svg xmlns="http://www.w3.org/2000/svg" width="71" height="71" viewBox="0 0 71 71">
  <g id="Layer_2" data-name="Layer 2" opacity="0.7">
    <g id="Layer_1" data-name="Layer 1">
      <rect id="Rectangle_71" data-name="Rectangle 71" width="71" height="71" rx="9" fill="#fd3832"/>
      <path id="Path_1794" data-name="Path 1794" d="M10.462,35.318a4.608,4.608,0,0,1-3.074-2.925c-1.339-3.578-1.735-18.516.843-21.466A5,5,0,0,1,11.6,9.284c6.917-.725,28.286-.628,30.741.242a4.758,4.758,0,0,1,3.024,2.828c1.463,3.7,1.512,17.139-.2,20.692a4.627,4.627,0,0,1-2.157,2.127c-2.578,1.257-29.129,1.233-32.55.145Zm10.982-7.01,12.4-6.285-12.4-6.333Z" transform="translate(8.979 12.97)" fill="#fff" fill-rule="evenodd"/>
    </g>
  </g>
</svg>
